<?xml version="1.0" encoding="UTF-8" standalone="no"?>
<svg
   xmlns:dc="http://purl.org/dc/elements/1.1/"
   xmlns:cc="http://creativecommons.org/ns#"
   xmlns:rdf="http://www.w3.org/1999/02/22-rdf-syntax-ns#"
   xmlns:svg="http://www.w3.org/2000/svg"
   xmlns="http://www.w3.org/2000/svg"
   xmlns:sodipodi="http://sodipodi.sourceforge.net/DTD/sodipodi-0.dtd"
   xmlns:inkscape="http://www.inkscape.org/namespaces/inkscape"
   fill-opacity="1"
   color-rendering="auto"
   color-interpolation="auto"
   text-rendering="auto"
   stroke="black"
   stroke-linecap="square"
   stroke-miterlimit="10"
   shape-rendering="auto"
   stroke-opacity="1"
   fill="black"
   stroke-dasharray="none"
   font-weight="normal"
   stroke-width="1"
   font-family="'Dialog'"
   font-style="normal"
   stroke-linejoin="miter"
   font-size="12"
   stroke-dashoffset="0"
   image-rendering="auto"
   version="1.1"
   id="svg9"
   x="0px"
   y="0px"
   width="100"
   height="100"
   viewBox="0 0 100 100"
   sodipodi:docname="ballot_box_with_x.svg"
   inkscape:version="0.92.2 5c3e80d, 2017-08-06">
  <metadata
     id="metadata13">
    <rdf:RDF>
      <cc:Work
         rdf:about="">
        <dc:format>image/svg+xml</dc:format>
        <dc:type
           rdf:resource="http://purl.org/dc/dcmitype/StillImage" />
      </cc:Work>
    </rdf:RDF>
  </metadata>
  <sodipodi:namedview
     pagecolor="#ffffff"
     bordercolor="#666666"
     borderopacity="1"
     objecttolerance="10"
     gridtolerance="10"
     guidetolerance="10"
     inkscape:pageopacity="0"
     inkscape:pageshadow="2"
     inkscape:window-width="1388"
     inkscape:window-height="987"
     id="namedview11"
     showgrid="false"
     inkscape:zoom="2.36"
     inkscape:cx="50"
     inkscape:cy="50"
     inkscape:window-x="0"
     inkscape:window-y="0"
     inkscape:window-maximized="0"
     inkscape:current-layer="svg9" />
  <!--Unicode Character 'BALLOT BOX WITH X' (U+2612)-->
  <defs
     id="genericDefs" />
  <g
     id="g7"
     transform="matrix(0.57093061,0,0,0.57093061,-10.357024,-120.51095)"
     style="stroke-width:1.75152636;fill:#ff0000">
    <g
       id="g5"
       style="stroke-width:1.75152636;fill:#ff0000">
      <path
         d="M 193.2188,385.875 H 18.1406 V 211.0781 H 193.2188 Z M 181.6875,374.3438 V 222.3281 H 29.6719 V 374.3438 Z M 160.4531,248.4844 q -0.2812,0.1406 -1.5469,0.4218 -5.0624,1.125 -5.0624,3.375 -0.1407,1.5469 -3.375,5.0626 -3.7969,4.0781 -5.625,7.3124 -5.0626,8.8594 -13.0782,20.5313 -8.1562,11.9531 -8.1562,16.3125 0,6.8906 4.3594,18.7031 4.3593,11.8125 11.3906,21.375 2.1094,2.9531 2.1094,3.6563 0,0.2812 -0.4219,0.9844 -0.8438,1.6874 -0.8438,2.5312 l 0.2813,1.6875 -3.6563,1.8281 q -2.3906,1.2656 -2.3906,3.6563 l 0.2813,1.125 q 0,0.2812 -0.8438,0.2812 -0.7031,0 -3.4453,-1.6172 -2.7422,-1.6171 -3.7266,-3.3047 -1.5469,-2.9531 -4.3593,-3.375 -1.2657,-0.4218 -3.5157,-2.9531 -1.9687,-2.1093 -3.9375,-3.0937 -0.9844,-0.2813 -12.0937,-19.2656 -8.2969,7.1718 -23.2031,23.625 -10.5469,11.8124 -15.3282,16.3124 0,-3.6562 -2.3906,-6.0468 -1.4062,-1.4063 -1.4062,-3.375 0,-0.8438 -1.2657,-0.8438 -1.125,0 -1.5469,-1.8281 0,-1.125 -2.9531,-2.5313 -0.2812,-0.2812 -0.2812,-1.125 l 0.2812,-1.2656 -0.5625,-1.6875 q 0,-1.9687 15.4688,-19.5469 15.4687,-17.5781 25.4531,-29.9531 l -12.375,-49.7812 q -0.5625,-1.2657 -0.5625,-3.7969 0,-3.0938 1.9688,-5.6953 1.9687,-2.6016 4.3593,-2.6016 11.6719,0 26.4375,37.6875 7.0313,-5.0625 19.4063,-19.2656 12.5156,-14.2031 16.875,-14.2031 3.375,0 6.3281,3.5156 2.9531,3.5156 2.9531,6.6094 z"
         id="path3"
         inkscape:connector-curvature="0"
         style="stroke:none;stroke-width:1.75152636;fill:#ff0000" />
    </g>
  </g>
</svg>
