<?xml version="1.0" encoding="UTF-8" standalone="no"?>
<!-- Generator: Adobe Illustrator 19.0.0, SVG Export Plug-In . SVG Version: 6.00 Build 0)  -->

<svg
   xmlns:dc="http://purl.org/dc/elements/1.1/"
   xmlns:cc="http://creativecommons.org/ns#"
   xmlns:rdf="http://www.w3.org/1999/02/22-rdf-syntax-ns#"
   xmlns:svg="http://www.w3.org/2000/svg"
   xmlns="http://www.w3.org/2000/svg"
   xmlns:sodipodi="http://sodipodi.sourceforge.net/DTD/sodipodi-0.dtd"
   xmlns:inkscape="http://www.inkscape.org/namespaces/inkscape"
   version="1.1"
   id="Layer_1"
   x="0px"
   y="0px"
   viewBox="0 0 65 59"
   xml:space="preserve"
   inkscape:version="0.91 r13725"
   sodipodi:docname="CameraScanIcon.svg"
   width="65"
   height="59"><metadata
     id="metadata3475"><rdf:RDF><cc:Work
         rdf:about=""><dc:format>image/svg+xml</dc:format><dc:type
           rdf:resource="http://purl.org/dc/dcmitype/StillImage" /><dc:title></dc:title></cc:Work></rdf:RDF></metadata><defs
     id="defs3473" /><sodipodi:namedview
     pagecolor="#ffffff"
     bordercolor="#666666"
     borderopacity="1"
     objecttolerance="10"
     gridtolerance="10"
     guidetolerance="10"
     inkscape:pageopacity="0"
     inkscape:pageshadow="2"
     inkscape:window-width="1724"
     inkscape:window-height="1032"
     id="namedview3471"
     showgrid="false"
     inkscape:zoom="10.166667"
     inkscape:cx="43.918033"
     inkscape:cy="24.393443"
     inkscape:window-x="0"
     inkscape:window-y="0"
     inkscape:window-maximized="0"
     inkscape:current-layer="Layer_1" /><style
     type="text/css"
     id="style3466">
	.st0{fill:#333333;}
</style><g
     id="g4441"
     inkscape:export-filename="/Users/ben/Projects/eContainment4/eContainment4.Views/Resources/CameraScanIcon/CameraScanIcon.36.png"
     inkscape:export-xdpi="55.2901"
     inkscape:export-ydpi="55.2901"
     transform="translate(-15.5,-18.5)"><path
       sodipodi:nodetypes="ssccssccsssssssss"
       id="XMLID_6_"
       class="st0"
       d="m 74,28.5 -6.3,0 c -2.2,0 -4.2,-1.1 -5.4,-2.9 l -2.6,-4 c -1.2,-1.8 -3.2,-2.9 -5.4,-2.9 l -12.6,0 c -2.2,0 -4.2,1.1 -5.4,2.9 l -2.6,4 c -1.2,1.8 -3.2,2.9 -5.4,2.9 l -6.3,0 c -3.6,0 -6.5,2.9 -6.5,6.5 l 0,35.8 c 0,3.6 2.9,6.5 6.5,6.5 l 52,0 c 3.6,0 6.5,-2.9 6.5,-6.5 l 0,-35.8 c 0,-3.6 -2.9,-6.5 -6.5,-6.5 z"
       inkscape:connector-curvature="0"
       style="fill:#000000" /><g
       style="fill:#ffffff"
       transform="matrix(0.82663398,0,0,0.82663398,4.5336649,11.948719)"
       id="g3616"><g
         style="fill:#ffffff"
         id="g3568"><rect
           x="18.917"
           y="26.476"
           style="fill:#ffffff"
           width="3.7"
           height="45.882"
           id="rect3570" /><rect
           x="25.577"
           y="26.476"
           style="fill:#ffffff"
           width="3.7"
           height="37.001999"
           id="rect3572" /><rect
           x="31.497"
           y="26.476"
           style="fill:#ffffff"
           width="8.1400003"
           height="37.001999"
           id="rect3574" /><rect
           x="44.818001"
           y="26.476"
           style="fill:#ffffff"
           width="2.96"
           height="37.001999"
           id="rect3576" /><rect
           x="51.123001"
           y="26.476"
           style="fill:#ffffff"
           width="5.9200001"
           height="37.001999"
           id="rect3578" /><rect
           x="70.615997"
           y="26.476"
           style="fill:#ffffff"
           width="4.4400001"
           height="37.001999"
           id="rect3580" /><rect
           x="59.647999"
           y="26.476"
           style="fill:#ffffff"
           width="2.96"
           height="37.001999"
           id="rect3582" /><rect
           x="77.379997"
           y="26.476"
           style="fill:#ffffff"
           width="2.96"
           height="37.001999"
           id="rect3584" /><rect
           x="82.559998"
           y="26.476"
           style="fill:#ffffff"
           width="4.4400001"
           height="45.882"
           id="rect3586" /><rect
           x="25.577"
           y="69.398003"
           style="fill:#ffffff"
           width="2.96"
           height="2.96"
           id="rect3588" /><rect
           x="31.497"
           y="69.398003"
           style="fill:#ffffff"
           width="2.96"
           height="2.96"
           id="rect3590" /><rect
           x="37.417999"
           y="69.398003"
           style="fill:#ffffff"
           width="2.96"
           height="2.96"
           id="rect3592" /><rect
           x="43.338001"
           y="69.398003"
           style="fill:#ffffff"
           width="2.96"
           height="2.96"
           id="rect3594" /><rect
           x="49.257999"
           y="69.398003"
           style="fill:#ffffff"
           width="2.96"
           height="2.96"
           id="rect3596" /><rect
           x="55.178001"
           y="69.398003"
           style="fill:#ffffff"
           width="2.96"
           height="2.96"
           id="rect3598" /><rect
           x="61.098999"
           y="69.398003"
           style="fill:#ffffff"
           width="2.96"
           height="2.96"
           id="rect3600" /><rect
           x="67.018997"
           y="69.398003"
           style="fill:#ffffff"
           width="2.96"
           height="2.96"
           id="rect3602" /><rect
           x="72.939003"
           y="69.398003"
           style="fill:#ffffff"
           width="2.96"
           height="2.96"
           id="rect3604" /></g></g><path
       sodipodi:nodetypes="cc"
       inkscape:connector-curvature="0"
       id="path3639"
       d="m 20.163935,52.721312 56.459017,-10e-7"
       style="fill:#ff0000;fill-rule:evenodd;stroke:#ff0000;stroke-width:3;stroke-linecap:round;stroke-linejoin:round;stroke-miterlimit:4;stroke-dasharray:none;stroke-opacity:1" /></g></svg>