<?xml version="1.0" encoding="UTF-8" standalone="no"?>
<!-- Generator: Adobe Illustrator 19.0.0, SVG Export Plug-In . SVG Version: 6.00 Build 0)  -->

<svg
   xmlns:dc="http://purl.org/dc/elements/1.1/"
   xmlns:cc="http://creativecommons.org/ns#"
   xmlns:rdf="http://www.w3.org/1999/02/22-rdf-syntax-ns#"
   xmlns:svg="http://www.w3.org/2000/svg"
   xmlns="http://www.w3.org/2000/svg"
   xmlns:sodipodi="http://sodipodi.sourceforge.net/DTD/sodipodi-0.dtd"
   xmlns:inkscape="http://www.inkscape.org/namespaces/inkscape"
   version="1.1"
   id="Layer_1"
   x="0px"
   y="0px"
   width="65"
   height="59"
   viewBox="0 0 65 59"
   xml:space="preserve"
   inkscape:version="0.91 r13725"
   sodipodi:docname="CameraImage.svg"
   >
   <metadata
     id="metadata3475"><rdf:RDF><cc:Work
         rdf:about=""><dc:format>image/svg+xml</dc:format><dc:type
           rdf:resource="http://purl.org/dc/dcmitype/StillImage" /><dc:title></dc:title></cc:Work></rdf:RDF></metadata><defs
     id="defs3473" /><sodipodi:namedview
     pagecolor="#ffffff"
     bordercolor="#666666"
     borderopacity="1"
     objecttolerance="10"
     gridtolerance="10"
     guidetolerance="10"
     inkscape:pageopacity="0"
     inkscape:pageshadow="2"
     inkscape:window-width="1724"
     inkscape:window-height="1032"
     id="namedview3471"
     showgrid="false"
     inkscape:zoom="10.166667"
     inkscape:cx="27.934427"
     inkscape:cy="24.393443"
     inkscape:window-x="0"
     inkscape:window-y="0"
     inkscape:window-maximized="0"
     inkscape:current-layer="Layer_1" /><style
     type="text/css"
     id="style3466">
	.st0{fill:#333333;}
</style><path
     style="fill:#000000"
     inkscape:connector-curvature="0"
     d="m 58.5,10 -6.3,0 C 50,10 48,8.9 46.8,7.1 l -2.6,-4 C 43,1.3 41,0.2 38.8,0.2 l -12.6,0 C 24,0.2 22,1.3 20.8,3.1 l -2.6,4 C 17,8.9 15,10 12.8,10 L 6.5,10 C 2.9,10 0,12.9 0,16.5 l 0,35.8 c 0,3.6 2.9,6.5 6.5,6.5 l 52,0 c 3.6,0 6.5,-2.9 6.5,-6.5 L 65,16.5 C 65,12.9 62.1,10 58.5,10 Z"
     class="st0"
     id="XMLID_6_"
     sodipodi:nodetypes="ssccssccsssssssss" /><circle
     style="fill:none;fill-opacity:1;stroke:#ffffff;stroke-width:4.8689599;stroke-linecap:round;stroke-linejoin:round;stroke-miterlimit:4;stroke-dasharray:none;stroke-opacity:1"
     id="path3378"
     cx="32.5"
     cy="31.5"
     r="15.06552" /></svg>