<?xml version="1.0" encoding="UTF-8" standalone="no"?>
<!-- Generator: Adobe Illustrator 12.0.0, SVG Export Plug-In . SVG Version: 6.00 Build 51448)  -->

<svg
   xmlns:dc="http://purl.org/dc/elements/1.1/"
   xmlns:cc="http://creativecommons.org/ns#"
   xmlns:rdf="http://www.w3.org/1999/02/22-rdf-syntax-ns#"
   xmlns:svg="http://www.w3.org/2000/svg"
   xmlns="http://www.w3.org/2000/svg"
   xmlns:sodipodi="http://sodipodi.sourceforge.net/DTD/sodipodi-0.dtd"
   xmlns:inkscape="http://www.inkscape.org/namespaces/inkscape"
   version="1.0"
   id="Layer_1"
   width="750.98907"
   height="627.51099"
   viewBox="0 0 501.91103 419.38651"
   overflow="visible"
   enable-background="new 0 0 480.1181641 401"
   xml:space="preserve"
   sodipodi:version="0.32"
   inkscape:version="0.48.5 r10040"
   sodipodi:docname="I-66N (DC 1957).svg"
   inkscape:output_extension="org.inkscape.output.svg.inkscape"
   style="overflow:visible"><metadata
     id="metadata3396"><rdf:RDF><cc:Work
         rdf:about=""><dc:format>image/svg+xml</dc:format><dc:type
           rdf:resource="http://purl.org/dc/dcmitype/StillImage" /><dc:title></dc:title></cc:Work></rdf:RDF></metadata><defs
     id="defs3394"><inkscape:perspective
       sodipodi:type="inkscape:persp3d"
       inkscape:vp_x="0 : 200.5 : 1"
       inkscape:vp_y="0 : 1000 : 0"
       inkscape:vp_z="480.11816 : 200.5 : 1"
       inkscape:persp3d-origin="240.05908 : 133.66667 : 1"
       id="perspective3398" /></defs><sodipodi:namedview
     inkscape:window-height="1002"
     inkscape:window-width="1280"
     inkscape:pageshadow="2"
     inkscape:pageopacity="0.0"
     guidetolerance="10.0"
     gridtolerance="10.0"
     objecttolerance="10.0"
     borderopacity="1.0"
     bordercolor="#666666"
     pagecolor="#ffffff"
     id="base"
     showgrid="false"
     inkscape:zoom="1"
     inkscape:cx="374.07641"
     inkscape:cy="260.90903"
     inkscape:window-x="521"
     inkscape:window-y="73"
     inkscape:current-layer="Layer_1"
     fit-margin-top="0"
     fit-margin-left="0"
     fit-margin-right="0"
     fit-margin-bottom="0"
     inkscape:window-maximized="0" /><g
     id="g3287"
     transform="matrix(1.0461929,0,0,1.0465857,-0.19616117,-0.09811745)"
     style="stroke:#000000;stroke-width:0.6387043;stroke-miterlimit:4;stroke-opacity:1;stroke-dasharray:none"><path
       inkscape:connector-curvature="0"
       style="fill:#ffffff;fill-rule:evenodd;stroke:#000000;stroke-width:0.6387043;stroke-miterlimit:4;stroke-opacity:1;stroke-dasharray:none"
       id="path3289"
       d="m 444.05859,0.5 c -31.60644,12.369141 -66.00976,19.158203 -102,19.158203 -35.98925,0 -70.39257,-6.789551 -101.99951,-19.158203 -31.60644,12.368652 -66.01025,19.158203 -102,19.158203 C 102.06934,19.658203 67.665527,12.869141 36.059082,0.5 13.438477,39.803711 0.5,85.386719 0.5,133.99121 0.5,272.39844 105.41602,386.29785 240.05908,400.5 374.70215,386.29785 479.61816,272.39844 479.61816,133.99121 479.61816,85.386719 466.67969,39.803711 444.05859,0.5 z"
       clip-rule="evenodd" /><path
       inkscape:connector-curvature="0"
       style="fill:none;stroke:#000000;stroke-width:0.6387043;stroke-miterlimit:4;stroke-opacity:1;stroke-dasharray:none"
       id="path3291"
       d="m 444.05859,0.5 c -31.60644,12.369141 -66.00976,19.158203 -102,19.158203 -35.98925,0 -70.39257,-6.789551 -101.99951,-19.158203 -31.60644,12.368652 -66.01025,19.158203 -102,19.158203 C 102.06934,19.658203 67.665527,12.869141 36.059082,0.5 13.438477,39.803711 0.5,85.386719 0.5,133.99121 0.5,272.39844 105.41602,386.29785 240.05908,400.5 374.70215,386.29785 479.61816,272.39844 479.61816,133.99121 479.61816,85.386719 466.67969,39.803711 444.05859,0.5 z"
       stroke-miterlimit="3.863693"
       clip-rule="evenodd" /></g><g
     id="g3293"
     transform="matrix(1.0461929,0,0,1.0465857,-0.19616117,-0.09811745)"><path
       inkscape:connector-curvature="0"
       style="fill:#003882"
       id="path3295"
       d="m 13.752441,108.5 452.612789,0 c 0.82813,8.38379 1.25293,16.8877 1.25293,25.49121 0,131.77051 -99.56347,240.29981 -227.55908,254.43848 C 112.06299,374.29102 12.5,265.76172 12.5,133.99121 12.5,125.3877 12.923828,116.88379 13.752441,108.5 z" /></g><g
     id="g3297"
     transform="matrix(1.0461929,0,0,1.0465857,-0.19616117,-0.09811745)"><path
       inkscape:connector-curvature="0"
       style="fill:#b01c2e"
       id="path3299"
       d="m 464.89355,96.5 -449.669429,0 c 4.240723,-28.911133 13.312988,-56.241699 26.367676,-81.155273 30.212402,10.571289 62.680663,16.313476 96.467283,16.313476 35.8584,0 70.23194,-6.46875 102,-18.3125 31.76807,11.84375 66.14209,18.3125 101.99951,18.3125 33.78711,0 66.25489,-5.742187 96.46778,-16.313476 13.05468,24.913574 22.12695,52.24414 26.36718,81.155273 z" /></g><g
     transform="scale(0.99981223,1.0001878)"
     style="font-size:193.01696777px;font-style:normal;font-variant:normal;font-weight:normal;font-stretch:normal;text-align:center;line-height:100%;writing-mode:lr-tb;text-anchor:middle;fill:#ffffff;fill-opacity:1;stroke:none;font-family:Roadgeek 2005 Series D;-inkscape-font-specification:Roadgeek 2005 Series D"
     id="text3452"><path
       d="m 185.55512,200.27542 c -1.15819,1.41557 -2.25195,2.70235 -3.28128,3.86034 -0.90084,1.15821 -1.80159,2.31631 -2.70224,3.47431 -0.77216,1.1582 -1.60857,2.38064 -2.50922,3.66732 -0.90084,1.28688 -1.86592,2.76667 -2.89526,4.43939 -5.79058,9.52226 -10.74468,19.55913 -14.8623,30.11065 -3.98909,10.55164 -7.07736,21.03889 -9.26482,31.46176 -0.38609,2.70227 -0.77213,5.34017 -1.1581,7.9137 -0.38609,2.4449 -0.70779,4.95412 -0.96508,7.52766 -0.12874,2.4449 -0.25742,5.01845 -0.38604,7.72068 -0.12873,2.57357 -0.19307,5.46882 -0.19301,8.68576 l -20.84584,0 c 0.12864,-7.46331 0.57902,-14.66927 1.35112,-21.6179 0.77203,-6.94858 1.86579,-13.76851 3.28129,-20.4598 1.54409,-6.6912 3.47426,-13.31811 5.79051,-19.88074 2.31615,-6.69119 5.08273,-13.44678 8.29973,-20.26678 2.18747,-4.88968 4.56801,-9.65076 7.14163,-14.28326 2.57349,-4.63231 5.01837,-8.75 7.33464,-12.35309 l -61.765429,0 0,-20.4598 87.629699,0 0,20.4598 0,0"
       style="line-height:100%;fill:#ffffff;font-family:Roadgeek 2005 Series D;-inkscape-font-specification:Roadgeek 2005 Series D"
       id="path4878" /><path
       d="m 299.20895,244.66933 c -1.1e-4,10.29429 -1.22255,20.13814 -3.66733,29.53159 -2.44498,9.39352 -5.91928,16.98551 -10.42291,22.776 -7.20605,9.65086 -17.62896,14.47627 -31.26875,14.47628 -9.13619,-10e-6 -16.66384,-1.86583 -22.58299,-5.5975 -5.91921,-3.73165 -10.80897,-9.58649 -14.66929,-17.56454 -2.70225,-5.53313 -4.88978,-12.22437 -6.56257,-20.07376 -1.67283,-7.97799 -2.50924,-15.82734 -2.50922,-23.54807 -2e-5,-10.6802 1.22242,-20.5884 3.66732,-29.72462 2.57354,-9.13603 6.04784,-16.79236 10.42292,-22.96902 3.8603,-4.88964 8.42837,-8.49262 13.7042,-10.80895 5.40443,-2.44475 11.83832,-3.66719 19.3017,-3.66732 8.23532,1.3e-4 15.24826,1.86596 21.03885,5.59749 5.79042,3.73179 10.74452,9.58663 14.8623,17.56455 2.70214,5.79061 4.82533,12.5462 6.36956,20.26678 1.54404,7.72076 2.3161,15.63445 2.31621,23.74109 m -20.4598,0 c -9e-5,-7.33458 -0.64347,-14.09016 -1.93017,-20.26679 -1.28686,-6.30513 -3.21703,-11.64526 -5.79051,-16.0204 -2.05892,-3.34553 -4.43946,-5.79041 -7.14163,-7.33465 -2.57362,-1.54402 -5.79057,-2.44477 -9.65085,-2.70224 -5.01849,-0.25724 -9.20052,0.90086 -12.5461,3.47431 -3.34567,2.57366 -6.11224,6.75569 -8.29973,12.5461 -1.67285,3.86043 -2.95963,8.55717 -3.86034,14.09024 -0.7721,5.40455 -1.15813,10.80902 -1.1581,16.21343 -3e-5,6.94866 0.64336,13.63991 1.93017,20.07376 1.28674,6.43394 3.21691,11.70973 5.79051,15.82739 2.0588,3.34565 4.50368,5.85487 7.33464,7.52766 2.83087,1.67284 6.30517,2.50924 10.42292,2.50922 4.76102,2e-5 8.6857,-1.28676 11.77403,-3.86033 3.21688,-2.57354 5.91911,-6.75557 8.10672,-12.54611 0.64331,-1.67277 1.2867,-3.66728 1.93017,-5.98352 0.64331,-2.44484 1.15802,-4.95406 1.54413,-7.52767 0.51463,-2.70218 0.90067,-5.40442 1.1581,-8.10671 0.25728,-2.70218 0.38595,-5.34007 0.38604,-7.91369"
       style="line-height:100%;fill:#ffffff;font-family:Roadgeek 2005 Series D;-inkscape-font-specification:Roadgeek 2005 Series D"
       id="path4880" /><path
       d="m 406.79178,271.88472 c -1e-4,5.91922 -1.09386,11.38803 -3.28129,16.40644 -2.18762,5.01846 -5.34022,9.3935 -9.45783,13.12515 -3.60306,3.21696 -7.84943,5.72618 -12.73912,7.52767 -4.76115,1.67281 -9.90827,2.50921 -15.44136,2.50922 -11.19503,-10e-6 -20.78153,-2.9596 -28.75953,-8.87878 -7.84937,-6.04786 -13.96157,-14.02588 -18.33661,-23.93411 l 19.49471,-7.14163 c 2.70221,6.17658 6.43387,10.93766 11.19499,14.28326 4.76104,3.21697 10.22985,4.82544 16.40644,4.82542 6.04781,2e-5 10.87323,-1.80147 14.47627,-5.40447 3.73159,-3.73163 5.59742,-8.2997 5.5975,-13.70421 -8e-5,-4.24633 -1.15818,-7.72063 -3.47431,-10.42291 -2.18759,-2.70219 -5.08285,-4.95405 -8.68576,-6.7556 -3.60305,-1.93011 -7.59206,-3.60292 -11.96706,-5.01844 -4.24641,-1.41539 -8.49278,-2.95953 -12.73912,-4.6324 -1.9302,-0.77201 -4.31074,-1.86577 -7.14162,-3.28129 -2.83095,-1.41539 -5.59752,-3.34556 -8.29973,-5.79051 -2.57358,-2.57348 -4.82544,-5.72609 -6.7556,-9.45783 -1.8015,-3.73158 -2.70225,-8.29964 -2.70223,-13.70421 -2e-5,-6.30512 1.02941,-11.64525 3.08827,-16.02041 2.05883,-4.50361 4.8254,-8.10659 8.29973,-10.80895 3.60295,-2.83079 7.84932,-4.88963 12.73912,-6.17654 5.0184,-1.28665 10.42287,-1.93004 16.21342,-1.93017 9.13608,1.3e-4 16.72807,2.38067 22.776,7.14163 6.17647,4.7612 10.87321,11.1951 14.09024,19.3017 l -18.14359,5.40447 c -1.0295,-2.05874 -2.38061,-3.92457 -4.05336,-5.59749 -1.41552,-1.41535 -3.41003,-2.70213 -5.98352,-3.86034 -2.44494,-1.15799 -5.46887,-1.80138 -9.0718,-1.93017 -2.31626,-0.12857 -4.76113,0.0645 -7.33465,0.57905 -2.44492,0.38615 -4.63244,1.15821 -6.56257,2.3162 -1.93021,1.15821 -3.47434,2.76669 -4.63241,4.82543 -1.15814,1.93027 -1.60851,4.37515 -1.35112,7.33464 0.25732,3.98911 1.99447,7.07738 5.21146,9.26482 3.21691,2.05893 7.14158,3.86042 11.77403,5.40447 4.63236,1.54422 9.58645,3.15269 14.86231,4.82543 5.40441,1.54421 10.3585,3.86041 14.86231,6.94861 4.50364,2.95966 8.2353,7.01301 11.19498,12.16007 3.08818,5.01849 4.63231,11.77408 4.63241,20.26678"
       style="line-height:100%;fill:#ffffff;font-family:Roadgeek 2005 Series D;-inkscape-font-specification:Roadgeek 2005 Series D"
       id="path4882" /></g><text
     xml:space="preserve"
     style="font-size:150.68600464px;font-style:normal;font-variant:normal;font-weight:normal;font-stretch:normal;text-align:center;line-height:125%;writing-mode:lr-tb;text-anchor:middle;fill:#000000;fill-opacity:1;stroke:none;font-family:Roadgeek 2005 Series D;-inkscape-font-specification:Roadgeek 2005 Series D"
     x="152.72038"
     y="235.87196"
     id="text3456"
     sodipodi:linespacing="125%"><tspan
       sodipodi:role="line"
       id="tspan3458"
       x="152.72038"
       y="235.87196" /></text>
<g
     transform="scale(0.99981223,1.0001878)"
     style="font-size:37.76418686px;font-style:normal;font-variant:normal;font-weight:normal;font-stretch:normal;text-align:center;line-height:100%;writing-mode:lr-tb;text-anchor:middle;fill:#ffffff;fill-opacity:1;stroke:none;font-family:Roadgeek 2005 Series D;-inkscape-font-specification:Roadgeek 2005 Series D"
     id="text2908"><path
       d="m 243.09803,138.68274 c -2e-5,2.5428 -0.39025,4.78347 -1.17069,6.72202 -0.7553,1.91339 -1.85046,3.42396 -3.28548,4.53171 -0.47836,0.45317 -1.04483,0.79305 -1.69939,1.01963 -0.62942,0.22658 -1.27141,0.36505 -1.92597,0.41541 l -1.43504,0 -7.7039,0 0,-25.30201 8.15707,0 c 0.62939,3e-5 1.17068,0.0252 1.62386,0.0755 0.47833,0.0252 0.90632,0.0881 1.28398,0.18882 0.37763,0.10073 0.7175,0.2392 1.01963,0.41541 0.3021,0.17625 0.62939,0.39025 0.98187,0.64199 1.33432,1.15812 2.35395,2.70645 3.0589,4.64499 0.73009,1.9134 1.09514,4.1289 1.09516,6.6465 m -4.07853,0 c -2e-5,-1.71196 -0.18884,-3.23512 -0.56646,-4.56947 -0.35248,-1.33431 -0.84342,-2.32877 -1.47281,-2.98337 -0.3273,-0.30209 -0.70494,-0.55385 -1.13292,-0.75528 -0.42801,-0.20139 -0.90635,-0.30209 -1.43504,-0.30212 l -4.5317,0 0,17.22047 4.003,0 c 0.65457,1e-5 1.19585,-0.0755 1.62386,-0.22658 0.45316,-0.15105 0.85598,-0.40281 1.20846,-0.75529 0.75526,-0.75527 1.32173,-1.78749 1.69938,-3.09666 0.40281,-1.33432 0.60421,-2.84489 0.60423,-4.5317"
       style="line-height:100%;letter-spacing:8.19913197;fill:#ffffff;font-family:Roadgeek 2005 Series D;-inkscape-font-specification:Roadgeek 2005 Series D"
       id="path4773" /><path
       d="m 273.48598,146.23558 c -1.51058,3.72606 -4.05337,5.5891 -7.62836,5.5891 -1.88822,0 -3.44914,-0.36506 -4.68276,-1.09517 -1.23364,-0.7301 -2.25327,-1.87561 -3.0589,-3.43654 -0.57906,-1.13292 -1.03223,-2.45466 -1.35951,-3.96524 -0.32729,-1.51055 -0.49094,-3.05888 -0.49094,-4.64499 0,-2.01408 0.25176,-3.94005 0.75529,-5.77792 0.50352,-1.83784 1.19586,-3.32323 2.07703,-4.45618 0.75528,-0.93149 1.66161,-1.63642 2.71902,-2.11479 1.08256,-0.47832 2.34137,-0.71749 3.77642,-0.71752 1.91337,3e-5 3.48688,0.41543 4.72052,1.24622 1.25879,0.83083 2.31619,2.13999 3.17219,3.92747 l -3.73865,1.5861 c -0.35248,-0.52868 -0.67977,-0.96926 -0.98187,-1.32175 -0.27695,-0.35244 -0.57907,-0.62938 -0.90634,-0.83081 -0.30213,-0.20139 -0.64201,-0.33986 -1.01963,-0.4154 -0.35248,-0.0755 -0.76789,-0.11328 -1.24622,-0.1133 -1.03223,2e-5 -1.90081,0.2392 -2.60573,0.71752 -0.67976,0.47837 -1.23364,1.284 -1.66163,2.41691 -0.32729,0.7553 -0.57905,1.64905 -0.75528,2.68126 -0.15106,1.03223 -0.22659,2.08963 -0.22658,3.17219 -10e-6,1.3847 0.13846,2.71903 0.4154,4.003 0.27693,1.25882 0.66716,2.29104 1.17069,3.09667 0.45316,0.65458 0.98186,1.14551 1.5861,1.4728 0.60421,0.32729 1.34691,0.49094 2.22808,0.49093 0.85598,1e-5 1.59867,-0.22658 2.22809,-0.67975 0.62939,-0.47834 1.19585,-1.23363 1.69939,-2.26585 l 3.81418,1.43504 0,0"
       style="line-height:100%;letter-spacing:8.19913197;fill:#ffffff;font-family:Roadgeek 2005 Series D;-inkscape-font-specification:Roadgeek 2005 Series D"
       id="path4775" /></g><g
     transform="scale(0.99981223,1.0001878)"
     style="font-size:62.94031524999999760px;font-style:normal;font-variant:normal;font-weight:normal;font-stretch:normal;text-align:center;line-height:100%;writing-mode:lr-tb;text-anchor:middle;fill:#ffffff;fill-opacity:1;stroke:none;font-family:Roadgeek 2005 Series C;-inkscape-font-specification:Roadgeek 2005 Series C"
     id="text2904"><path
       d="m 121.59866,86.37532 0,-42.170011 5.91639,0 0,42.170011 -5.91639,0"
       style="line-height:100%;font-family:Roadgeek 2005 Series C;-inkscape-font-specification:Roadgeek 2005 Series C;fill:#ffffff"
       id="path4468" /><path
       d="m 155.91294,86.37532 -13.02865,-28.260201 0,28.260201 -6.04227,0 0,-42.170011 6.04227,0 11.58102,25.302007 0,-25.302007 6.04227,0 0,42.170011 -4.59464,0"
       style="line-height:100%;font-family:Roadgeek 2005 Series C;-inkscape-font-specification:Roadgeek 2005 Series C;fill:#ffffff"
       id="path4470" /><path
       d="m 180.17545,49.806997 0,36.568323 -6.10521,0 0,-36.568323 -7.67872,0 0,-5.601688 21.46264,0 0,5.601688 -7.67871,0"
       style="line-height:100%;font-family:Roadgeek 2005 Series C;-inkscape-font-specification:Roadgeek 2005 Series C;fill:#ffffff"
       id="path4472" /><path
       d="m 193.63582,86.37532 0,-42.170011 19.8262,0 0,5.91639 -13.78393,0 0,10.636913 8.7487,0 0,5.790509 -8.7487,0 0,13.90981 15.42038,0 0,5.916389 -21.46265,0"
       style="line-height:100%;font-family:Roadgeek 2005 Series C;-inkscape-font-specification:Roadgeek 2005 Series C;fill:#ffffff"
       id="path4474" /><path
       d="m 239.59012,86.37532 -5.60169,-19.826199 -5.79051,0 0,19.826199 -6.04227,0 0,-42.170011 12.58807,0 c 1.63643,4.2e-5 3.12601,0.272783 4.46876,0.818224 1.38466,0.545524 2.55955,1.300807 3.52466,2.265852 1.00702,0.965123 1.7623,2.160987 2.26585,3.587598 0.54545,1.384721 0.81819,2.916267 0.81822,4.594643 -3e-5,2.517641 -0.50355,4.657609 -1.51056,6.419912 -1.00708,1.762351 -2.51764,3.021156 -4.53171,3.776419 l 6.04227,20.707363 -6.23109,0 m 0.3147,-30.903694 c -2e-5,-1.636416 -0.50354,-2.937181 -1.51056,-3.9023 -1.00707,-0.965049 -2.32881,-1.447591 -3.96524,-1.447627 l -6.2311,0 0,10.636913 6.2311,0 c 1.76231,2.6e-5 3.10503,-0.440556 4.02818,-1.321746 0.96506,-0.923097 1.4476,-2.244843 1.44762,-3.96524"
       style="line-height:100%;font-family:Roadgeek 2005 Series C;-inkscape-font-specification:Roadgeek 2005 Series C;fill:#ffffff"
       id="path4476" /><path
       d="m 274.35088,74.857243 c -3e-5,1.720378 -0.31473,3.335845 -0.94411,4.846404 -0.58747,1.468613 -1.42667,2.748398 -2.51761,3.839359 -1.04903,1.090967 -2.28685,1.972131 -3.71348,2.643493 -1.3847,0.629403 -2.89527,0.944104 -4.5317,0.944105 -1.84626,-1e-6 -3.50369,-0.356662 -4.97229,-1.069985 -1.46861,-0.713323 -2.70644,-1.678407 -3.71348,-2.895255 -1.00705,-1.216841 -1.78331,-2.622507 -2.32879,-4.217001 -0.54548,-1.594479 -0.81822,-3.251905 -0.81822,-4.972285 l 5.91639,0 c -1e-5,0.881176 0.10489,1.76234 0.3147,2.643494 0.25175,0.839213 0.60841,1.615476 1.06999,2.328791 0.50351,0.67137 1.11193,1.216853 1.82526,1.636448 0.75528,0.419608 1.65742,0.629409 2.70644,0.629404 0.79723,5e-6 1.55251,-0.167836 2.26585,-0.503523 0.75527,-0.335676 1.38467,-0.797237 1.88821,-1.384687 0.54546,-0.587435 0.96506,-1.258798 1.25881,-2.01409 0.33566,-0.797234 0.5035,-1.615457 0.50352,-2.454672 -2e-5,-1.216834 -0.25178,-2.286818 -0.75529,-3.209956 -0.50354,-0.965069 -1.3847,-1.930153 -2.64349,-2.895255 -0.20982,-0.209783 -0.29374,-0.314683 -0.25176,-0.314701 0.0419,-0.04194 -0.0839,-0.167823 -0.37764,-0.377642 -0.29374,-0.209783 -0.92314,-0.608404 -1.88821,-1.195866 -0.92314,-0.629383 -2.45469,-1.678388 -4.59465,-3.147016 -1.72037,-1.174862 -3.02114,-2.538568 -3.90229,-4.091121 -0.83921,-1.594459 -1.25882,-3.335806 -1.25881,-5.224046 -1e-5,-1.510534 0.27274,-2.916199 0.81822,-4.217001 0.54548,-1.342689 1.30076,-2.517574 2.26585,-3.524657 1.00704,-1.007005 2.16095,-1.783268 3.46172,-2.328792 1.30076,-0.5874 2.70642,-0.881122 4.217,-0.881165 1.51055,4.3e-5 2.89524,0.272784 4.15406,0.818225 1.30075,0.545524 2.41269,1.300807 3.33584,2.265851 0.96506,0.965124 1.72034,2.119028 2.26585,3.461717 0.58742,1.342762 0.90212,2.811368 0.94411,4.405822 l -5.79051,0 c -0.0839,-1.468574 -0.58746,-2.643458 -1.51057,-3.524657 -0.92314,-0.881128 -2.05607,-1.32171 -3.39878,-1.321747 -1.3847,3.7e-5 -2.55958,0.461599 -3.52465,1.384687 -0.9651,0.923159 -1.44764,2.077064 -1.44763,3.461717 -1e-5,1.049036 0.27273,1.9302 0.81822,2.643494 0.54547,0.713352 1.59448,1.510595 3.14702,2.391732 4.07012,2.349796 7.02831,4.741525 8.87458,7.175195 1.88819,2.43371 2.83229,5.182101 2.83232,8.245182"
       style="line-height:100%;font-family:Roadgeek 2005 Series C;-inkscape-font-specification:Roadgeek 2005 Series C;fill:#ffffff"
       id="path4478" /><path
       d="m 291.9191,49.806997 0,36.568323 -6.10521,0 0,-36.568323 -7.67872,0 0,-5.601688 21.46265,0 0,5.601688 -7.67872,0"
       style="line-height:100%;font-family:Roadgeek 2005 Series C;-inkscape-font-specification:Roadgeek 2005 Series C;fill:#ffffff"
       id="path4480" /><path
       d="m 323.00276,86.37532 -2.9582,-11.518077 -9.0634,0 -2.76938,11.518077 -6.10521,0 10.51104,-42.170011 5.91639,0 10.51103,42.170011 -6.04227,0 m -7.55284,-29.581948 -2.95819,12.147481 6.04227,0 -3.08408,-12.147481"
       style="line-height:100%;font-family:Roadgeek 2005 Series C;-inkscape-font-specification:Roadgeek 2005 Series C;fill:#ffffff"
       id="path4482" /><path
       d="m 345.39377,49.806997 0,36.568323 -6.10521,0 0,-36.568323 -7.67872,0 0,-5.601688 21.46265,0 0,5.601688 -7.67872,0"
       style="line-height:100%;font-family:Roadgeek 2005 Series C;-inkscape-font-specification:Roadgeek 2005 Series C;fill:#ffffff"
       id="path4484" /><path
       d="m 358.85416,86.37532 0,-42.170011 19.8262,0 0,5.91639 -13.78393,0 0,10.636913 8.7487,0 0,5.790509 -8.7487,0 0,13.90981 15.42037,0 0,5.916389 -21.46264,0"
       style="line-height:100%;font-family:Roadgeek 2005 Series C;-inkscape-font-specification:Roadgeek 2005 Series C;fill:#ffffff"
       id="path4486" /></g></svg>