<?xml version="1.0" encoding="UTF-8" standalone="no"?>
<!-- Created with Inkscape (http://www.inkscape.org/) -->

<svg
   xmlns:dc="http://purl.org/dc/elements/1.1/"
   xmlns:cc="http://creativecommons.org/ns#"
   xmlns:rdf="http://www.w3.org/1999/02/22-rdf-syntax-ns#"
   xmlns:svg="http://www.w3.org/2000/svg"
   xmlns="http://www.w3.org/2000/svg"
   xmlns:inkscape="http://www.inkscape.org/namespaces/inkscape"
   version="1.1"
   width="600"
   height="600"
   viewBox="0 0 600 599.99921"
   id="Layer_1"
   xml:space="preserve"><defs
     id="defs24" /><metadata
     id="metadata62"><rdf:RDF><cc:Work
         rdf:about=""><dc:format>image/svg+xml</dc:format><dc:type
           rdf:resource="http://purl.org/dc/dcmitype/StillImage" /><dc:title /></cc:Work></rdf:RDF></metadata><g
     transform="matrix(1.5625,0,0,1.5625,-0.78125,-0.78125)"
     id="g5"><g
       id="g7"><path
         d="m 0.5,24.5 c 0,-13.255 10.745,-24 24,-24 h 336 c 13.254,0 24,10.745 24,24 v 336 c 0,13.255 -10.746,24 -24,24 h -336 c -13.255,0 -24,-10.745 -24,-24 v -336 z"
         inkscape:connector-curvature="0"
         id="path9" /><path
         d="M 192.5,192.5"
         inkscape:connector-curvature="0"
         id="path11" /></g><g
       id="g13"><path
         d="m 0.5,24.5 c 0,-13.255 10.745,-24 24,-24 h 336 c 13.254,0 24,10.745 24,24 v 336 c 0,13.255 -10.746,24 -24,24 h -336 c -13.255,0 -24,-10.745 -24,-24 v -336 z"
         inkscape:connector-curvature="0"
         id="path15" /><path
         d="M 192.5,192.5"
         inkscape:connector-curvature="0"
         id="path17" /></g></g><g
     transform="matrix(1.5995,0,0,1.6556,-9.8888,-13.408)"
     id="g35"><path
       d="m 346.3,354.89 c -0.29394,-0.73242 -0.29492,-2.2393 -0.005,-3.3486 0.36816,-1.4082 -0.16992,-2.8926 -1.7822,-4.918 -1.2715,-1.5967 -2.3125,-3.5098 -2.3125,-4.2529 0,-2.1201 -4.1943,-4.7451 -8.5908,-5.376 -3.1055,-0.44726 -4.1924,-1.0332 -4.8154,-2.6035 -0.50683,-1.2764 -1.5547,-2.0508 -2.831,-2.0918 -1.1152,-0.0361 -3.4297,-0.54687 -5.1455,-1.1377 -2.877,-0.98926 -3.1523,-1.3955 -3.5635,-5.2373 -0.41601,-3.8887 -0.63574,-4.2012 -3.335,-4.7256 -1.5898,-0.30859 -3.3945,-0.9248 -4.0098,-1.3701 -0.61524,-0.44336 -2.9228,-1.3301 -5.1289,-1.9688 -2.2051,-0.63867 -4.5195,-1.5293 -5.1436,-1.9814 -0.625,-0.45117 -1.4268,-0.52246 -1.7822,-0.15625 -0.35547,0.36621 -0.0957,0.85254 0.57813,1.0811 3.0723,1.0449 4.3789,3.5557 5.0176,9.6426 0.56836,5.4316 0.44922,6.3613 -0.94043,7.334 -1.3564,0.95117 -1.4346,1.4473 -0.52441,3.3613 1.5527,3.2627 0.65625,4.8867 -5.3496,9.6924 -7.1963,5.7588 -8.3906,5.6699 -9.1406,-0.67871 -0.32422,-2.7393 -0.33106,-5.623 -0.0156,-6.4102 0.86035,-2.1465 -5.6533,-7.6152 -8.3106,-6.9766 -1.1621,0.27832 -2.0078,0.0908 -2.0078,-0.44629 0,-0.51172 -0.90137,-0.80664 -2.0049,-0.65722 -1.3066,0.17773 -2.3144,1.1641 -2.8955,2.832 -1.126,3.2363 -5.123,7.043 -7.7705,7.4033 -1.2588,0.1709 -2.1309,0.95312 -2.2959,2.0576 -0.29785,1.998 -5.6309,4.8516 -7.667,4.1035 -0.70508,-0.25879 -2.1416,-0.0303 -3.1904,0.50684 -1.4688,0.75293 -2.2266,0.72558 -3.2832,-0.11426 -0.75586,-0.60059 -2.0996,-1.4912 -2.9883,-1.9785 -11.588,-6.3682 -12.025,-6.542 -15.259,-6.0654 l -3.2529,0.47949 -1.0898,-4.3496 c -0.92872,-3.708 -1.5303,-4.5274 -4.0654,-5.542 -1.6367,-0.65332 -3.377,-1.9072 -3.8662,-2.7852 -0.49121,-0.87793 -2.0976,-1.8272 -3.5723,-2.1084 -2.0107,-0.38477 -2.8174,-1.1074 -3.2246,-2.8857 -0.2998,-1.3047 -0.70898,-2.8799 -0.91211,-3.501 -0.73828,-2.2656 -3.5469,-0.47168 -5.7793,3.6894 -2.1357,3.9844 -4.3125,5.4043 -3.6602,2.3877 0.73633,-3.4062 -0.72657,-5.3486 -4.7598,-6.3213 -2.8789,-0.69336 -3.9941,-1.3906 -3.9941,-2.498 0,-2.6436 -1.0195,-4.2344 -2.7153,-4.2344 -0.89893,0 -1.8823,0.38476 -2.1851,0.85351 -0.30273,0.46875 -2.0532,0.85352 -3.8906,0.85352 -1.8379,0 -4.1196,0.56347 -5.0708,1.252 -3.8076,2.7578 -5.1162,0.80957 -2.5938,-3.8623 1.0239,-1.8955 1.1274,-2.9482 0.41407,-4.2236 -1.2007,-2.1484 -2.7212,-2.1484 -5.5752,9.8e-4 -1.2417,0.93652 -3.7622,2.1826 -5.6016,2.7725 -4.7725,1.5322 -5.5547,3.1504 -3.563,7.3809 1.3276,2.8184 1.4233,3.707 0.51172,4.7588 -1.479,1.706 -7.4141,3.1953 -10.132,2.542 -1.3755,-0.33105 -3.5664,0.17188 -6.0474,1.3887 -2.5254,1.2363 -5.2959,1.8623 -7.8989,1.7832 -2.2051,-0.0664 -6.0142,-0.17383 -8.4644,-0.23633 -4.3008,-0.11035 -10.177,0.94629 -21.347,3.8379 -7.3013,1.8906 -8.3062,1.7949 -17.572,-1.6719 -4.479,-1.6758 -9.3809,-3.0723 -10.895,-3.1025 -1.5132,-0.0303 -4.1543,-0.71583 -5.8701,-1.5234 -5.9946,-2.8232 -9.4727,-2.7705 -15.943,0.24121 -4.9434,2.3008 -6.9536,2.751 -12.567,2.8115 -4.2534,0.0469 -7.9316,0.60742 -10.118,1.543 -3.2725,1.3994 -3.521,1.3965 -5.2056,-0.0635 -4.4878,-3.8887 -3.8633,-6.8994 1.8887,-9.1035 5.2153,-1.998 5.8008,-3.6309 6.0098,-16.764 0.18408,-11.553 0.8623,-14.99 5.2148,-26.438 1.1216,-2.9492 1.3887,-6.1807 1.165,-14.078 -0.26416,-9.3125 -0.49072,-10.504 -2.4717,-13.033 -2.0796,-2.6543 -2.1309,-3.0137 -1.1138,-7.7295 0.58643,-2.7217 1.0693,-7.0361 1.0718,-9.5879 0.0044,-4.9326 0.16455,-5.2559 7.3096,-14.802 6.3179,-8.4414 6.3184,-8.4453 6.5684,-20.544 0.25049,-12.175 -0.90332,-18.157 -4.5459,-23.572 -1.1416,-1.6973 -2.5112,-4.5767 -3.0439,-6.3989 -0.5332,-1.8232 -2.1665,-4.8223 -3.6304,-6.6655 -1.4648,-1.8438 -2.6626,-3.7993 -2.6626,-4.3467 0,-0.54834 -1.6855,-3.4551 -3.7446,-6.4604 -4.0054,-5.8433 -4.4365,-8.3506 -2.9497,-17.14 0.73535,-4.3452 -0.60889,-7.2998 -5.9966,-13.174 -1.3901,-1.5176 -5.6049,-5.1852 -6.8661,-8.1515 v -88.593 c 72.183,0.0033 110.68,-0.005 204.03,0 1.0918,0.55957 1.7402,2.6729 1.7402,4.1777 0,2.5771 1.9082,4.6665 5.1172,5.603 5.0742,1.4805 6.1045,5.9741 2.4551,10.71 -2.7051,3.5112 -2.7871,5.5083 -0.38281,9.2852 1.5762,2.478 1.6865,3.2368 0.76953,5.355 -0.9043,2.0908 -0.82813,2.7192 0.49316,4.1172 1.1797,1.2485 1.4121,2.4048 0.9541,4.7417 -0.40722,2.0791 -0.19531,3.6963 0.65039,4.9404 0.68946,1.0161 1.7774,3.3843 2.416,5.2612 0.63867,1.8774 1.752,4.2817 2.4717,5.3428 1.8896,2.7817 1.0342,9.8965 -1.8701,15.561 -5.8809,11.466 -14.379,23.719 -17.639,25.428 -6.0039,3.1494 -6.1728,3.4478 -7.4043,13.088 -1.2383,9.689 -1.2676,9.7676 -5.2246,14.535 -2.5664,3.0933 -2.5879,3.2046 -1.4238,7.5557 1.1055,4.126 1.0518,4.646 -0.80665,7.8955 -1.0947,1.9126 -1.6816,3.7686 -1.3066,4.1226 0.006,0.0461 124.98,0.25913 124.98,0.25913 0.004,1.5029 -0.46875,14.146 -1.0498,17.801 -0.84082,5.2842 -0.82129,7.5254 0.0928,10.938 1.5107,5.6455 0.0517,11.134 -3.627,13.642 -2.9443,2.0078 -3.2539,4.1602 -0.89062,6.208 0.91211,0.79102 2.3564,3.0586 3.209,5.0391 4.0684,9.4463 6.4443,13.87 8.375,15.596 1.1572,1.0342 2.4336,3.3652 2.8359,5.1816 0.40234,1.8144 1.2002,4.834 1.7725,6.7119 0.57324,1.877 1.2441,4.8643 1.4912,6.6367 0.41699,2.9805 0.14063,3.4854 -3.6543,6.6846 -2.749,2.3174 -4.1055,4.1406 -4.1055,5.5215 0,2.499 1.832,2.6924 3.3574,0.35351 1.3906,-2.1338 3.0547,-2.1699 5.002,-0.11133 1.2793,1.3535 1.3398,1.9502 0.40234,3.919 -0.97461,2.0518 -0.88671,2.4893 0.75391,3.7373 1.0225,0.77735 2.3057,2.252 2.8535,3.2774 0.57714,1.082 2.0176,1.9756 3.4375,2.1328 3.2461,0.35938 3.7656,3.0332 0.99218,5.1152 -1.9375,1.4541 -1.9785,1.6426 -0.53906,2.46 2.3301,1.3232 1.8828,3.166 -0.89062,3.6611 -1.3477,0.24023 -4.0547,0.7168 -6.0137,1.0606 -1.96,0.34179 -5.332,0.65625 -7.4912,0.69726 -4.6816,0.0879 -6.0234,1.9648 -1.9609,2.7422 3.6123,0.6914 5.1494,2.4375 3.6602,4.1562 -0.61035,0.70508 -2.0332,1.2803 -3.1631,1.2803 -2.2998,0 -5.7461,3.6377 -5.7461,6.0654 0,0.87403 1.1621,2.1445 2.6191,2.8662 3.1934,1.5811 5.3994,4.4463 5.3994,7.0127 0,2.1289 2.3447,3.6787 5.5654,3.6787 2.002,0 4.7822,2.667 7.4844,7.1807 0.58008,0.97071 1.9844,1.7227 3.25,1.7422 1.3633,0.0225 3.8203,1.4619 6.3281,3.709 3.4707,3.1074 4.1006,4.168 4.1006,6.8906 0,3.3203 -1.7988,5.6211 -6.0273,7.709 -1.6523,0.81739 -2.1133,0.75879 -2.5449,-0.31933 -0.74512,-1.8604 -3.3262,-1.6328 -5.3125,0.46972 -2.6396,2.794 -4.5576,3.5234 -5.1807,1.9697 z"
       inkscape:connector-curvature="0"
       id="path37"
       style="fill:#ffffff" /></g><g
     transform="matrix(1.5537,0,0,1.5537,-3.3229,4.3868)"
     id="g39"><g
       id="g41"><polygon
         points="66.5,42.229 80.333,42.229 80.333,125.95 115.64,125.95 115.64,138.77 66.5,138.77 "
         id="polygon43"
         style="fill-rule:evenodd" /></g><g
       id="g45"><path
         d="m 169.53,138.77 -6.7725,-26.369 h -20.75 l -6.3398,26.369 h -13.977 l 24.063,-96.542 h 13.544 l 24.07,96.542 h -13.83 z m -17.3,-67.723 -6.77,27.81 h 13.833 l -7.0606,-27.81 z"
         inkscape:connector-curvature="0"
         id="path47"
         style="fill-rule:evenodd" /></g></g><g
     id="routenum"><path
       d="m 239.45,424.07 c -8e-5,10.448 -1.219,19.677 -3.6567,27.687 -2.4379,7.8358 -5.9205,13.756 -10.448,17.761 -6.617,5.7463 -14.627,8.6194 -24.03,8.6194 -12.015,0 -21.157,-4.4403 -27.425,-13.321 -6.2687,-9.0547 -9.403,-22.027 -9.403,-38.918 0,-26.293 5.1368,-50.149 15.41,-71.567 10.448,-21.592 26.206,-40.746 47.276,-57.463 l 12.276,19.067 c -9.9254,8.0101 -18.284,16.455 -25.075,25.336 -6.617,8.8807 -12.189,19.067 -16.716,30.56 6.791,-2.0894 12.886,-1.9153 18.284,0.52239 5.5721,2.2638 10.099,6.1817 13.582,11.754 2.9601,4.3533 5.3109,10.1 7.0522,17.239 1.9153,7.1394 2.873,14.714 2.8731,22.724 m -22.724,-3.1343 c -6e-5,-17.935 -4.8757,-26.903 -14.627,-26.903 -5.2239,8e-5 -9.0548,2.4379 -11.493,7.3134 -2.2637,4.7016 -3.3956,12.276 -3.3955,22.724 -2e-5,6.4428 0.34823,11.841 1.0448,16.194 0.69649,4.1791 2.0025,7.4005 3.9179,9.6642 1.2189,1.3931 2.699,2.699 4.4403,3.9179 1.7412,1.0448 3.5696,1.5672 5.4851,1.5672 4.5273,2e-5 8.184,-2.2637 10.97,-6.791 0.87059,-2.2636 1.6542,-6.0074 2.3508,-11.231 0.87059,-5.398 1.3059,-10.883 1.306,-16.455"
       inkscape:connector-curvature="0"
       id="path2999" /><path
       d="m 333.83,425.89 c -8e-5,8.7065 -0.87073,16.542 -2.6119,23.507 -1.7414,6.9652 -4.3533,12.624 -7.8358,16.978 -3.4827,4.005 -7.3135,6.9652 -11.493,8.8806 -4.1792,1.9154 -9.9254,2.8731 -17.239,2.8731 -6.617,0 -12.363,-1.5672 -17.239,-4.7015 -4.8756,-3.1343 -9.2289,-7.7487 -13.06,-13.843 -3.6567,-5.398 -5.4851,-11.144 -5.4851,-17.239 h 22.724 c 0.34823,3.8309 1.7413,6.9652 4.1791,9.403 2.6119,2.4378 5.7462,3.6567 9.403,3.6567 5.9204,2e-5 10.012,-2.2637 12.276,-6.791 2.4378,-4.7015 3.6567,-12.276 3.6567,-22.724 -6e-5,-6.9651 -0.34832,-12.711 -1.0448,-17.239 -0.52244,-4.5273 -1.4802,-8.0969 -2.8731,-10.709 -1.3931,-2.6119 -3.3956,-4.4402 -6.0075,-5.4851 -2.4378,-1.0447 -5.4851,-1.5671 -9.1418,-1.5672 h -7.3134 v -22.724 h 5.4851 c 6.0945,1e-4 10.361,-1.9153 12.799,-5.7463 2.6119,-4.0049 3.9179,-11.057 3.9179,-21.157 -5e-5,-14.453 -4.5274,-21.679 -13.582,-21.679 -3.4826,1.5e-4 -6.2687,1.0449 -8.3582,3.1343 -1.9154,2.0897 -3.0473,4.9628 -3.3955,8.6194 h -22.724 c 0.69651,-10.796 4.092,-19.241 10.187,-25.336 6.2686,-6.0944 14.366,-9.1416 24.291,-9.1418 24.204,1.8e-4 36.306,14.801 36.306,44.403 -7e-5,7.6618 -0.69659,14.366 -2.0896,20.112 -1.3931,5.7464 -3.8309,11.667 -7.3134,17.761 2.2636,2.2638 4.0049,4.2663 5.2239,6.0075 1.393,1.5672 2.5248,3.3085 3.3955,5.2239 1.9154,4.1792 3.2213,9.2289 3.9179,15.149 0.69644,5.7463 1.0447,12.537 1.0448,20.373"
       inkscape:connector-curvature="0"
       id="path3001" /><path
       d="m 431.73,405.52 c -9e-5,8.3583 -0.9578,16.716 -2.8731,25.075 -1.7414,8.3582 -4.4404,16.194 -8.097,23.507 -8.7065,16.02 -21.244,24.03 -37.612,24.03 -9.0548,0 -17.848,-2.699 -26.381,-8.097 l 11.754,-19.59 c 2.9602,1.9154 5.485,3.2214 7.5746,3.9179 2.2636,0.69654 4.6144,1.0448 7.0522,1.0448 4.3532,2e-5 7.9228,-1.306 10.709,-3.9179 2.9602,-2.6119 5.5721,-6.8781 7.8358,-12.798 2.0895,-4.8756 3.8308,-10.709 5.2239,-17.5 1.393,-6.9651 2.0895,-13.408 2.0896,-19.328 -7e-5,-6.6168 -1.306,-11.928 -3.9179,-15.933 -2.612,-4.0049 -6.2687,-6.0074 -10.97,-6.0075 -2.4379,9e-5 -4.5274,0.60955 -6.2687,1.8284 -1.7413,1.219 -3.7438,3.0474 -6.0075,5.4851 l -22.724,-2.6119 3.1343,-84.627 h 64.515 v 22.724 h -42.836 l -0.78358,35.522 c 2.4378,-0.34814 4.5273,-0.60933 6.2686,-0.78358 1.7412,-0.17401 3.5696,-0.26107 5.4851,-0.26119 6.791,1.2e-4 12.363,1.3061 16.716,3.9179 4.5273,2.4379 8.5323,6.4429 12.015,12.015 2.4377,4.0051 4.3532,8.8807 5.7463,14.627 1.5671,5.7464 2.3507,11.667 2.3508,17.761"
       inkscape:connector-curvature="0"
       id="path3003" /></g></svg>