<?xml version="1.0" encoding="UTF-8" standalone="no"?>
<!-- Created with Inkscape (http://www.inkscape.org/) -->

<svg
   xmlns:dc="http://purl.org/dc/elements/1.1/"
   xmlns:cc="http://creativecommons.org/ns#"
   xmlns:rdf="http://www.w3.org/1999/02/22-rdf-syntax-ns#"
   xmlns:svg="http://www.w3.org/2000/svg"
   xmlns="http://www.w3.org/2000/svg"
   xmlns:inkscape="http://www.inkscape.org/namespaces/inkscape"
   version="1.1"
   width="600"
   height="600"
   viewBox="0 0 6.6666667 6.6666667"
   id="svg2985">
  <title
     id="title2987">M1-5-24</title>
  <defs
     id="defs15" />
  <metadata
     id="metadata3012">
    <rdf:RDF>
      <cc:Work
         rdf:about="">
        <dc:format>image/svg+xml</dc:format>
        <dc:type
           rdf:resource="http://purl.org/dc/dcmitype/StillImage" />
        <dc:title>M1-5-24</dc:title>
      </cc:Work>
    </rdf:RDF>
  </metadata>
  <style
     type="text/css"
     id="style3000" />
  <g
     transform="scale(0.27778,0.27778)"
     id="g3002"
     style="stroke-width:0">
    <rect
       width="24"
       height="24"
       rx="1.5"
       x="0"
       y="0"
       id="rect3004" />
    <path
       d="m 7.6128,1.6905 a 1.4605,1.4605 0 0 1 0.8406,0.2862 1.4636,1.4636 0 0 0 1.5478,0.1209 1.8951,1.8951 0 0 1 2.0464,0.1887 0.6864,0.6864 0 0 0 0.7762,0.0487 1.0921,1.0921 0 0 1 1.2696,0.1059 1.7109,1.7109 0 0 0 1.8706,0.2305 4.9425,4.9425 0 0 1 2.031,-0.5125 L 19.248,2.1167 A 6.0868,6.0868 0 0 0 22.303,1.1738 0.4539,0.4539 0 0 1 23,1.5571 v 8.5289 a 0.7038,0.7038 0 0 1 -0.3857,0.6277 0.4326,0.4326 0 0 0 -0.1701,0.6171 1.4162,1.4162 0 0 1 -0.057,1.5966 1.7365,1.7365 0 0 0 -0.322,1.2686 5.5049,5.5049 0 0 1 -4.0782,6.0869 3.1235,3.1235 0 0 0 -2.0526,1.7079 0.6817,0.6817 0 0 1 -0.9036,0.3317 0.4832,0.4832 0 0 0 -0.525,0.0792 1.0756,1.0756 0 0 1 -0.1766,0.1286 l -0.3808,0.2221 a 1.0013,1.0013 0 0 1 -0.775,0.099 2.1094,2.1094 0 0 0 -1.065,-0.02 3.3193,3.3193 0 0 1 -3.2594,-1.02 2.0632,2.0632 0 0 0 -1.4446,-0.69 A 15.224,15.224 0 0 1 5.6575,20.9374 5.7798,5.7798 0 0 1 3.536,20.1394 2.8409,2.8409 0 0 1 2.5854,19.1614 0.8717,0.8717 0 0 0 1.743,18.7334 0.3333,0.3333 0 0 1 1.3754,18.4024 V 1.9094 A 0.3333,0.3333 0 0 1 1.7152,1.5758 z"
       inkscape:connector-curvature="0"
       id="path3006"
       style="fill:#ffffff" />
  </g>
  <g
     id="routenum">
    <path
       d="M 1.8496,4.5833 V 2.1952 H 1.62572 V 1.97961 C 1.697583,1.965793 1.75701,1.946445 1.804,1.921567 1.850987,1.89393 1.897974,1.855235 1.94496,1.805477 h 0.25705 v 2.7778 h -0.3524"
       inkscape:connector-curvature="0"
       id="path2995" />
    <path
       d="M 2.9561,4.5833 V 2.1952 H 2.73222 V 1.97961 C 2.804083,1.965793 2.86351,1.946445 2.9105,1.921567 2.957487,1.89393 3.004474,1.855235 3.05146,1.805477 h 0.25705 v 2.7778 h -0.3524"
       inkscape:connector-curvature="0"
       id="path2997" />
    <path
       d="M 5.0369,2.3984 C 5.0368987,2.453681 5.03275,2.50481 5.024462,2.5518 5.016172,2.596025 5.000967,2.644394 4.978857,2.69691 4.956744,2.749427 4.926341,2.80885 4.887646,2.87519 c -0.0386,0.0663 -0.0898,0.1451 -0.1533,0.2363 -0.083,0.1327 -0.1631,0.2681 -0.2405,0.4063 -0.0746,0.1355 -0.1341,0.2571 -0.1783,0.3649 -0.0249,0.0552 -0.0428,0.1091 -0.0539,0.1617 -0.011,0.0497 -0.0193,0.1091 -0.0249,0.1782 h 0.75041 v 0.3607 h -1.1484 C 3.841516,4.41192 3.852576,4.25714 3.871923,4.11895 3.891271,3.97799 3.923056,3.84394 3.96728,3.71679 4.014267,3.58688 4.07507,3.45836 4.1497,3.33122 4.224326,3.20408 4.3183,3.06588 4.43162,2.91663 4.525594,2.78949 4.58916,2.68861 4.62233,2.61398 4.65826,2.539355 4.676226,2.46749 4.676227,2.39839 4.6762261,2.307182 4.655496,2.2367 4.614038,2.18695 4.572578,2.134437 4.515917,2.10818 4.444058,2.108177 c -0.0691,2.5e-6 -0.12576,0.022114 -0.16998,0.066335 -0.044224,0.041462 -0.069099,0.096741 -0.074627,0.16584 h -0.3607 c 0.0111,-0.1712 0.0705,-0.3108 0.1783,-0.4186 0.1106,-0.1105 0.2529,-0.1658 0.427,-0.1658 0.085682,2.8e-6 0.16445,0.016587 0.23632,0.049751 0.074626,0.030406 0.1382,0.07463 0.19071,0.13267 0.052514,0.055282 0.092591,0.123 0.12023,0.20315 0.030402,0.077393 0.045604,0.16308 0.045605,0.25705"
       inkscape:connector-curvature="0"
       id="path2999" />
  </g>
</svg>
