<?xml version="1.0" encoding="UTF-8" standalone="no"?>
<!-- Created with Inkscape (http://www.inkscape.org/) -->

<svg
   xmlns:dc="http://purl.org/dc/elements/1.1/"
   xmlns:cc="http://creativecommons.org/ns#"
   xmlns:rdf="http://www.w3.org/1999/02/22-rdf-syntax-ns#"
   xmlns:svg="http://www.w3.org/2000/svg"
   xmlns="http://www.w3.org/2000/svg"
   xmlns:sodipodi="http://sodipodi.sourceforge.net/DTD/sodipodi-0.dtd"
   xmlns:inkscape="http://www.inkscape.org/namespaces/inkscape"
   version="1.1"
   width="750.00043"
   height="600"
   id="svg2"
   inkscape:version="0.48.2 r9819"
   sodipodi:docname="PA-XXX_(1962).svg">
  <sodipodi:namedview
     pagecolor="#ffffff"
     bordercolor="#666666"
     borderopacity="1"
     objecttolerance="10"
     gridtolerance="10"
     guidetolerance="10"
     inkscape:pageopacity="0"
     inkscape:pageshadow="2"
     inkscape:window-width="1366"
     inkscape:window-height="706"
     id="namedview3003"
     showgrid="false"
     inkscape:zoom="0.86166667"
     inkscape:cx="375.00021"
     inkscape:cy="300"
     inkscape:window-x="-8"
     inkscape:window-y="-8"
     inkscape:window-maximized="1"
     inkscape:current-layer="svg2" />
  <metadata
     id="metadata3166">
    <rdf:RDF>
      <cc:Work
         rdf:about="">
        <dc:format>image/svg+xml</dc:format>
        <dc:type
           rdf:resource="http://purl.org/dc/dcmitype/StillImage" />
        <dc:title></dc:title>
      </cc:Work>
    </rdf:RDF>
  </metadata>
  <defs
     id="defs4" />
  <g
     transform="matrix(0.41623308,0,0,0.41623308,-47.448944,-109.99903)"
     id="g3614"
     style="fill:#ffffff;fill-opacity:1;stroke:#000000;stroke-opacity:1">
    <path
       d="m 114.49609,490.22625 262.79472,0 -82.79472,-225.45357 1440.37601,0 -82.7947,225.45357 263.2947,0 -90.0625,1215.04645 -1621.25101,0 z"
       id="rect2816"
       style="fill:#ffffff;fill-opacity:1;fill-rule:nonzero;stroke:#000000;stroke-width:1;stroke-linejoin:round;stroke-miterlimit:4;stroke-opacity:1;stroke-dasharray:none" />
    <path
       d="m 1772.9245,1660.7724 -1512.67651,0 -88.35732,-1125.04653 272.40184,0 -82.79607,-225.45361 1305.37596,0 -82.7958,225.45361 270.0002,0 z"
       id="path3601"
       style="fill:#ffffff;fill-opacity:1;fill-rule:nonzero;stroke:#000000;stroke-width:35;stroke-linejoin:round;stroke-miterlimit:4;stroke-opacity:1;stroke-dasharray:none" />
  </g>
  <g
     style="font-size:446.42855835px;font-style:normal;font-variant:normal;font-weight:normal;font-stretch:normal;text-align:center;line-height:125%;letter-spacing:0px;word-spacing:0px;writing-mode:lr-tb;text-anchor:middle;fill:#000000;fill-opacity:1;stroke:none;font-family:Roadgeek 2005 Series C;-inkscape-font-specification:Roadgeek 2005 Series C"
     id="text3183">
    <path
       d="m 256.52988,409.20011 c -1.9e-4,12.19802 -2.08465,23.58079 -6.25338,34.14835 -4.1691,10.56766 -9.89795,19.72065 -17.18658,27.45901 -7.28895,7.7384 -16.06728,13.7647 -26.33503,18.07894 -10.26802,4.31424 -21.35561,6.47136 -33.2628,6.47136 -12.19803,0 -23.28335,-2.08219 -33.25598,-6.24657 -9.97277,-4.16437 -18.60351,-9.96815 -25.89226,-17.41136 -7.28883,-7.44318 -13.09261,-16.29872 -17.411366,-26.56664 -4.318803,-10.26784 -6.773377,-21.50075 -7.363728,-33.69877 l 41.961664,0 c 1.18977,12.19802 5.57893,22.24111 13.16752,30.1293 7.58844,7.88829 17.18648,11.83241 28.79415,11.83237 12.20692,4e-5 22.25228,-4.24154 30.13611,-12.72474 7.88357,-8.4831 11.82542,-18.97351 11.82556,-31.47125 -1.4e-4,-8.03802 -1.0401,-15.55388 -3.11988,-22.54758 -2.08005,-6.99351 -4.90701,-13.09474 -8.48088,-18.30374 -3.57414,-5.20875 -7.66812,-9.30046 -12.28197,-12.27515 -4.61408,-2.97442 -9.60043,-4.46169 -14.95906,-4.46183 l -20.98083,0 0,-41.07612 17.86095,0 c 5.35864,1.8e-4 9.45262,-0.89218 12.28197,-2.6771 2.82911,-1.78455 6.02846,-4.76137 9.59805,-8.93048 8.62835,-9.51837 12.94258,-20.67635 12.94272,-33.47396 -1.4e-4,-11.60734 -3.19948,-20.83527 -9.59805,-27.6838 -6.39882,-6.84804 -14.80704,-10.27218 -25.22469,-10.27244 -9.51867,2.6e-4 -17.03225,2.75456 -22.54077,8.26291 -5.50868,5.50885 -8.85789,13.32216 -10.04764,23.43995 l -41.961668,-5.3542 c 1.189798,-9.82714 3.866888,-18.98013 8.031298,-27.45901 4.16434,-8.47835 9.52081,-15.69447 16.06941,-21.64841 6.54851,-5.95336 14.13929,-10.64225 22.77238,-14.06669 8.63294,-3.42384 17.8586,-5.13591 27.67699,-5.13622 10.71737,3.1e-4 20.6878,1.9349 29.91132,5.80379 9.22325,3.86949 17.18415,9.30089 23.88272,16.29421 6.69827,6.99388 11.98207,15.17958 15.85143,24.55711 3.86902,9.37805 5.80362,19.42113 5.80379,30.1293 -1.7e-4,12.50697 -2.0097,24.11681 -6.02858,34.82954 -4.01922,10.71313 -11.08776,21.87338 -21.20563,33.48078 11.60742,10.41791 20.31309,22.32293 26.11705,35.71511 5.80361,13.39242 8.7055,27.67708 8.70569,42.85403 z"
       style=""
       id="path3006" />
    <path
       d="m 458.81781,409.20011 c -1.9e-4,12.19802 -2.08464,23.58079 -6.25338,34.14835 -4.16909,10.56766 -9.89794,19.72065 -17.18657,27.45901 -7.28895,7.7384 -16.06729,13.7647 -26.33504,18.07894 -10.26801,4.31424 -21.3556,6.47136 -33.26279,6.47136 -12.19804,0 -23.28336,-2.08219 -33.25599,-6.24657 -9.97277,-4.16437 -18.60351,-9.96815 -25.89226,-17.41136 -7.28883,-7.44318 -13.09261,-16.29872 -17.41136,-26.56664 -4.31881,-10.26784 -6.77338,-21.50075 -7.36373,-33.69877 l 41.96167,0 c 1.18976,12.19802 5.57893,22.24111 13.16751,30.1293 7.58845,7.88829 17.18649,11.83241 28.79416,11.83237 12.20691,4e-5 22.25227,-4.24154 30.1361,-12.72474 7.88357,-8.4831 11.82542,-18.97351 11.82557,-31.47125 -1.5e-4,-8.03802 -1.04011,-15.55388 -3.11988,-22.54758 -2.08006,-6.99351 -4.90702,-13.09474 -8.48089,-18.30374 -3.57414,-5.20875 -7.66812,-9.30046 -12.28196,-12.27515 -4.61409,-2.97442 -9.60044,-4.46169 -14.95907,-4.46183 l -20.98083,0 0,-41.07612 17.86096,0 c 5.35863,1.8e-4 9.45261,-0.89218 12.28196,-2.6771 2.82912,-1.78455 6.02846,-4.76137 9.59805,-8.93048 8.62835,-9.51837 12.94259,-20.67635 12.94272,-33.47396 -1.3e-4,-11.60734 -3.19948,-20.83527 -9.59805,-27.6838 -6.39882,-6.84804 -14.80704,-10.27218 -25.22468,-10.27244 -9.51867,2.6e-4 -17.03226,2.75456 -22.54078,8.26291 -5.50867,5.50885 -8.85788,13.32216 -10.04764,23.43995 l -41.96167,-5.3542 c 1.1898,-9.82714 3.8669,-18.98013 8.0313,-27.45901 4.16434,-8.47835 9.52081,-15.69447 16.06942,-21.64841 6.5485,-5.95336 14.13929,-10.64225 22.77238,-14.06669 8.63294,-3.42384 17.85859,-5.13591 27.67699,-5.13622 10.71737,3.1e-4 20.68779,1.9349 29.91131,5.80379 9.22325,3.86949 17.18415,9.30089 23.88273,16.29421 6.69826,6.99388 11.98207,15.17958 15.85143,24.55711 3.86901,9.37805 5.80361,19.42113 5.80379,30.1293 -1.8e-4,12.50697 -2.00971,24.11681 -6.02859,34.82954 -4.01922,10.71313 -11.08776,21.87338 -21.20563,33.48078 11.60742,10.41791 20.3131,22.32293 26.11706,35.71511 5.8036,13.39242 8.70549,27.67708 8.70568,42.85403 z"
       style=""
       id="path3008" />
    <path
       d="m 661.10574,409.20011 c -1.8e-4,12.19802 -2.08464,23.58079 -6.25338,34.14835 -4.16909,10.56766 -9.89794,19.72065 -17.18657,27.45901 -7.28895,7.7384 -16.06729,13.7647 -26.33503,18.07894 -10.26802,4.31424 -21.35561,6.47136 -33.2628,6.47136 -12.19804,0 -23.28336,-2.08219 -33.25598,-6.24657 -9.97277,-4.16437 -18.60352,-9.96815 -25.89226,-17.41136 -7.28883,-7.44318 -13.09262,-16.29872 -17.41137,-26.56664 -4.3188,-10.26784 -6.77338,-21.50075 -7.36373,-33.69877 l 41.96167,0 c 1.18976,12.19802 5.57893,22.24111 13.16752,30.1293 7.58844,7.88829 17.18648,11.83241 28.79415,11.83237 12.20692,4e-5 22.25228,-4.24154 30.13611,-12.72474 7.88356,-8.4831 11.82541,-18.97351 11.82556,-31.47125 -1.5e-4,-8.03802 -1.0401,-15.55388 -3.11988,-22.54758 -2.08006,-6.99351 -4.90702,-13.09474 -8.48089,-18.30374 -3.57413,-5.20875 -7.66812,-9.30046 -12.28196,-12.27515 -4.61408,-2.97442 -9.60043,-4.46169 -14.95906,-4.46183 l -20.98084,0 0,-41.07612 17.86096,0 c 5.35863,1.8e-4 9.45262,-0.89218 12.28196,-2.6771 2.82912,-1.78455 6.02847,-4.76137 9.59805,-8.93048 8.62835,-9.51837 12.94259,-20.67635 12.94273,-33.47396 -1.4e-4,-11.60734 -3.19949,-20.83527 -9.59806,-27.6838 -6.39882,-6.84804 -14.80704,-10.27218 -25.22468,-10.27244 -9.51867,2.6e-4 -17.03225,2.75456 -22.54077,8.26291 -5.50868,5.50885 -8.85789,13.32216 -10.04764,23.43995 l -41.96167,-5.3542 c 1.18979,-9.82714 3.86689,-18.98013 8.0313,-27.45901 4.16434,-8.47835 9.5208,-15.69447 16.06941,-21.64841 6.54851,-5.95336 14.13929,-10.64225 22.77238,-14.06669 8.63294,-3.42384 17.85859,-5.13591 27.67699,-5.13622 10.71737,3.1e-4 20.6878,1.9349 29.91131,5.80379 9.22325,3.86949 17.18416,9.30089 23.88273,16.29421 6.69827,6.99388 11.98207,15.17958 15.85143,24.55711 3.86902,9.37805 5.80361,19.42113 5.80379,30.1293 -1.8e-4,12.50697 -2.0097,24.11681 -6.02858,34.82954 -4.01923,10.71313 -11.08776,21.87338 -21.20563,33.48078 11.60741,10.41791 20.31309,22.32293 26.11705,35.71511 5.80361,13.39242 8.7055,27.67708 8.70568,42.85403 z"
       style=""
       id="path3010" />
  </g>
</svg>
