<?xml version="1.0" encoding="UTF-8" standalone="no"?>
<svg
   xmlns:dc="http://purl.org/dc/elements/1.1/"
   xmlns:cc="http://creativecommons.org/ns#"
   xmlns:rdf="http://www.w3.org/1999/02/22-rdf-syntax-ns#"
   xmlns:svg="http://www.w3.org/2000/svg"
   xmlns="http://www.w3.org/2000/svg"
   viewBox="0 0 603.125 603.125"
   height="603.125"
   width="603.125"
   xml:space="preserve"
   id="svg884"
   version="1.1"><metadata
     id="metadata890"><rdf:RDF><cc:Work
         rdf:about=""><dc:format>image/svg+xml</dc:format><dc:type
           rdf:resource="http://purl.org/dc/dcmitype/StillImage" /><dc:title></dc:title></cc:Work></rdf:RDF></metadata><defs
     id="defs888"><clipPath
       id="clipPath902"
       clipPathUnits="userSpaceOnUse"><path
         id="path900"
         d="M 774,18.00003 V 594 H 40.07997 L 40.08,18 Z" /></clipPath></defs><g
     transform="matrix(1.3333333,0,0,-1.3333333,-289.80503,761.79401)"
     id="g892"><rect
       ry="28.125"
       rx="28.125"
       transform="scale(1,-1)"
       y="-570.17365"
       x="218.52565"
       height="450"
       width="450"
       id="rect967"
       style="opacity:1;fill:#000000;fill-opacity:1;fill-rule:nonzero;stroke:#ffffff;stroke-width:2.34375;stroke-linejoin:miter;stroke-miterlimit:4;stroke-dasharray:none;stroke-opacity:1" /><g
       style="stroke-width:0.67896074"
       transform="matrix(1.4728392,0,0,1.4728392,-103.26809,-56.967687)"
       id="g894" /><g
       style="fill:#ffffff;stroke-width:0.67807287"
       transform="matrix(1.4747677,0,0,1.4747677,-103.49567,-57.489839)"
       id="g898"
       clip-path="url(#clipPath902)"><g
         style="fill:#ffffff;stroke-width:0.67807287"
         id="g904"
         transform="matrix(0,0.12,-0.12,0,774,18.00003)" /><g
         style="fill:#ffffff;stroke-width:0.67807287"
         id="g908"
         transform="matrix(0,0.12,-0.12,0,326.4,99.84001)" /><g
         style="fill:#ffffff;stroke-width:0.67807287"
         id="g912"
         transform="matrix(0,0.12,-0.12,0,774,18.00003)" /><g
         style="fill:#ffffff;stroke-width:0.67807287"
         id="g916"
         transform="matrix(0,0.12,-0.12,0,309.72,230.88)" /><g
         style="fill:#ffffff;stroke-width:0.67807287"
         id="g920"
         transform="matrix(0,0.12,-0.12,0,192.96,306.36)"><path
           d="m -300.9306,-465.50575 c -280.39788,180.8481 -654.2952,100.5066 -835.3549,-179.6595 -63.1314,-97.6876 -96.7145,-211.5257 -96.7144,-327.8375 v -138.99985 c -10e-5,-142.4594 -62.2507,-277.806 -170.4138,-371.0001 108.1632,-93.1941 170.4138,-228.5407 170.4139,-371 l -10e-5,-139 c -10e-5,-333.58 270.42005,-604 603.99995,-604 116.3119,0 230.15,33.5831 328.0694,96.5031 245.3379,158.1904 571.2967,99.2856 745.6955,-134.6933 l 403.2353,410.1902 -30,38 -27,39 -23,42 -19,43 -16,45 -12,46 -8,47 -4,47 v 48 l 4,47 8,47 12,46 16,45 19,44 23,41 27,40 30,37 -30,37 -27,40 -23,41 -19,44 -16,44 -12,47 -8,46 -4,48 v 47 l 4,48 8,46.99995 12,46 16,45 19,43 23,42 27,39 30,37 -403.23527,411.1902 C 270.3662,-564.79145 -55.59264,-623.69625 -300.9306,-465.50575 Z"
           style="fill:#ffffff;stroke:none;stroke-width:4.0684371;stroke-linecap:round;stroke-linejoin:round;stroke-miterlimit:10;stroke-dasharray:none;stroke-opacity:1"
           id="path922" /></g><g
         style="fill:#ffffff;stroke-width:0.67807287"
         id="g924"
         transform="matrix(0,0.12,-0.12,0,774,18.00003)" /><g
         style="fill:#ffffff;stroke-width:0.67807287"
         id="g928"
         transform="matrix(0,0.12,-0.12,0,774,18.00003)" /><g
         style="fill:#ffffff;stroke-width:0.67807287"
         id="g932"
         transform="matrix(0,0.12,-0.12,0,415.44,99.84002)" /><g
         style="fill:#ffffff;stroke-width:0.67807287"
         id="g936"
         transform="matrix(0,0.12,-0.12,0,774,18.00003)" /><g
         style="fill:#ffffff;stroke-width:0.67807287"
         id="g940"
         transform="matrix(0,0.12,-0.12,0,432.12,230.88)" /><g
         style="fill:#ffffff;stroke-width:0.67807287"
         id="g944"
         transform="matrix(0,0.12,-0.12,0,548.88,306.36)" /><g
         style="fill:#ffffff;stroke-width:0.67807287"
         id="g948"
         transform="matrix(0,0.12,-0.12,0,774,18.00003)" /></g><g
       id="text971"
       style="font-style:normal;font-variant:normal;font-weight:normal;font-stretch:normal;font-size:334.82144165px;line-height:125%;font-family:'Roadgeek 2005 Series C';-inkscape-font-specification:'Roadgeek 2005 Series C';text-align:center;letter-spacing:0px;word-spacing:0px;writing-mode:lr-tb;text-anchor:middle;fill:#000000;fill-opacity:1;stroke:none;stroke-width:0.75px;stroke-linecap:butt;stroke-linejoin:miter;stroke-opacity:1"
       transform="scale(1,-1)"
       aria-label="20"><path
         id="path1312"
         style="font-style:normal;font-variant:normal;font-weight:normal;font-stretch:normal;font-family:'Roadgeek 2005 Series C';-inkscape-font-specification:'Roadgeek 2005 Series C';stroke-width:0.75px"
         d="m 298.35963,-232.67365 q 0.66964,-11.38392 1.33928,-19.75446 1.00447,-8.37054 2.00893,-15.06696 1.33929,-6.69643 3.01339,-12.72322 2.00893,-6.36161 4.6875,-13.72768 13.72768,-35.15625 36.16072,-55.91518 2.00893,-1.67411 4.01786,-3.34821 2.34375,-2.00893 5.35714,-4.35268 3.34821,-2.34375 7.70089,-5.69197 4.6875,-3.34821 11.38393,-8.03571 11.04911,-7.7009 14.73215,-13.05804 4.01785,-5.35714 4.01785,-13.72768 0,-6.3616 -2.67857,-12.05357 -2.34375,-5.69196 -6.69643,-10.04464 -4.01785,-4.35268 -10.04464,-6.69643 -5.69197,-2.67857 -12.05357,-2.67857 -6.69643,0 -12.3884,2.67857 -5.69196,2.34375 -10.04464,6.69643 -4.01786,4.35268 -6.69643,10.04464 -2.34375,5.69197 -2.34375,12.05357 h -31.47321 q 0.33482,-13.05803 5.02232,-24.44196 5.02232,-11.71875 13.39286,-20.08929 8.37053,-8.70536 19.75446,-13.39286 11.38393,-5.02232 24.77679,-5.02232 13.05803,0 24.10714,5.02232 11.38393,5.02233 19.75447,13.72768 8.70535,8.37054 13.39285,19.75447 5.02233,11.38393 5.02233,24.44196 0,26.78572 -19.08483,44.19643 -1.6741,1.33929 -3.68303,2.67857 -1.67411,1.00447 -3.34822,2.67858 l -7.70089,5.69196 -8.03571,5.35714 -8.70536,6.36161 q -5.35715,4.01786 -10.71429,9.70982 -5.02232,5.35715 -10.04464,12.05357 -4.6875,6.36161 -8.37054,13.72768 -3.68303,7.03125 -6.02678,14.0625 -2.00893,4.35268 -3.0134,8.03572 -0.66964,3.34821 -2.00893,9.375 h 90.73662 v 31.47321 z" /><path
         id="path1314"
         style="font-style:normal;font-variant:normal;font-weight:normal;font-stretch:normal;font-family:'Roadgeek 2005 Series C';-inkscape-font-specification:'Roadgeek 2005 Series C';stroke-width:0.75px"
         d="m 588.69168,-345.17365 q 0,25.78125 -3.0134,43.86161 -2.67857,18.08036 -9.70982,34.15179 -8.37053,20.08928 -21.09375,29.46428 -12.38839,9.04018 -31.47321,9.04018 -20.08929,0 -32.81251,-9.04018 -12.38839,-9.375 -20.75893,-29.46428 -7.03125,-16.40625 -10.04464,-34.15179 -2.67857,-18.08036 -2.67857,-43.86161 0,-25.44643 2.67857,-43.52679 3.01339,-18.41518 10.04464,-34.48661 8.70536,-20.08928 21.09376,-28.79464 12.72321,-9.04018 32.47768,-9.04018 19.41964,0 31.80803,9.04018 12.3884,8.70536 20.75893,29.46429 3.34822,8.37053 5.69197,16.74107 2.67857,8.37054 4.01785,17.74554 1.67411,9.04017 2.34375,19.75446 0.66965,10.37947 0.66965,23.10268 z m -30.80358,0 q 0,-9.375 -0.66964,-17.07589 -0.33482,-7.7009 -1.33929,-14.0625 -0.66964,-6.69643 -2.00892,-12.72322 -1.33929,-6.02678 -3.0134,-12.05357 -4.35268,-15.06697 -11.0491,-21.76339 -6.36161,-6.69643 -16.40625,-6.69643 -20.75893,0 -28.45983,27.79018 -4.01785,12.72321 -5.69196,25.78125 -1.33929,12.72321 -1.33929,31.47321 0,9.04018 0.33482,16.74108 0.66965,7.36607 1.33929,14.0625 1.00446,6.3616 2.34375,12.72321 1.33929,6.36161 3.01339,13.05804 7.7009,27.79018 28.45983,27.79018 10.04464,0 16.40625,-6.69643 6.69642,-6.69643 11.0491,-21.09375 2.00893,-6.69643 3.34822,-12.72322 1.33928,-6.36161 2.00893,-13.05803 1.00446,-6.69643 1.33928,-14.0625 0.33482,-7.7009 0.33482,-17.41072 z" /></g></g></svg>