<?xml version="1.0" encoding="UTF-8" standalone="no"?>
<!-- Created with Inkscape (http://www.inkscape.org/) -->

<svg
   xmlns:dc="http://purl.org/dc/elements/1.1/"
   xmlns:cc="http://creativecommons.org/ns#"
   xmlns:rdf="http://www.w3.org/1999/02/22-rdf-syntax-ns#"
   xmlns:svg="http://www.w3.org/2000/svg"
   xmlns="http://www.w3.org/2000/svg"
   xmlns:sodipodi="http://sodipodi.sourceforge.net/DTD/sodipodi-0.dtd"
   xmlns:inkscape="http://www.inkscape.org/namespaces/inkscape"
   width="210mm"
   height="297mm"
   viewBox="0 0 744.09448819 1052.3622047"
   id="svg2"
   version="1.1"
   inkscape:version="0.91 r13725"
   sodipodi:docname="unlicensedcopy.svg">
  <defs
     id="defs4" />
  <sodipodi:namedview
     id="base"
     pagecolor="#ffffff"
     bordercolor="#666666"
     borderopacity="1.0"
     inkscape:pageopacity="0.0"
     inkscape:pageshadow="2"
     inkscape:zoom="0.35"
     inkscape:cx="-86.428571"
     inkscape:cy="520"
     inkscape:document-units="px"
     inkscape:current-layer="layer1"
     showgrid="false"
     inkscape:window-width="1920"
     inkscape:window-height="1151"
     inkscape:window-x="0"
     inkscape:window-y="1"
     inkscape:window-maximized="1" />
  <metadata
     id="metadata7">
    <rdf:RDF>
      <cc:Work
         rdf:about="">
        <dc:format>image/svg+xml</dc:format>
        <dc:type
           rdf:resource="http://purl.org/dc/dcmitype/StillImage" />
        <dc:title />
      </cc:Work>
    </rdf:RDF>
  </metadata>
  <g
     inkscape:label="Layer 1"
     inkscape:groupmode="layer"
     id="layer1">
    <g
       id="g3426"
       transform="translate(2.8571429,417.14286)"
       inkscape:export-filename="/Users/ben/Development/Xamarin/Forms9Patch/Forms9Patch/Forms9Patch/Resources/unlicensedcopy.png"
       inkscape:export-xdpi="87.889999"
       inkscape:export-ydpi="87.889999">
      <g
         transform="translate(892.04724,0)"
         id="g3416">
        <path
           style="fill:#ea0000"
           inkscape:connector-curvature="0"
           id="path2231"
           d="m -219.36856,196.36592 -279.4,-483.94 c -4.38,-7.588 -12.47,-12.262 -21.23,-12.262 -8.76,0 -16.85,4.674 -21.23,12.258 l -279.41,483.94 c -4.375,7.58 -4.375,16.93 0.003,24.52 4.379,7.58 12.472,12.25 21.23,12.25 l 558.81,0 c 8.76,0 16.86,-4.67 21.23,-12.25 4.38,-7.59 4.38,-16.94 0,-24.52 z" />
        <polygon
           style="fill:#ffffff"
           id="polygon2233"
           points="533.9,482.88 313.94,101.89 93.977,482.88 "
           transform="translate(-833.93856,-308.57408)" />
      </g>
      <text
         sodipodi:linespacing="125%"
         id="text3338"
         y="98.754242"
         x="372.04724"
         style="font-style:normal;font-weight:normal;font-size:46.67860794px;line-height:125%;font-family:sans-serif;text-align:center;letter-spacing:0px;word-spacing:0px;text-anchor:middle;fill:#000000;fill-opacity:1;stroke:none;stroke-width:1px;stroke-linecap:butt;stroke-linejoin:miter;stroke-opacity:1"
         xml:space="preserve"><tspan
           id="tspan3420"
           y="98.754242"
           x="372.04724"
           sodipodi:role="line">UNLICENSED</tspan><tspan
           id="tspan3422"
           y="157.10251"
           x="372.04724"
           sodipodi:role="line">FORMS9PATCH</tspan></text>
      <g
         transform="matrix(0.49414108,0,0,0.49414108,628.99988,-76.908049)"
         id="g3412">
        <path
           inkscape:connector-curvature="0"
           id="path2235"
           d="m -542.06856,34.78592 c 1.21,11.49 3.21,20.04 6.02,25.66 2.81,5.63 7.82,8.43 15.04,8.43 l 2.01,0 c 7.22,0 12.24,-2.8 15.04,-8.43 2.81,-5.62 4.82,-14.17 6.02,-25.66 l 6.42,-88.75 c 1.21,-17.3 1.81,-29.71 1.81,-37.25 0,-10.25 -2.91,-18.25 -8.73,-23.99 -5.53,-5.46 -13.38,-8.59 -21.56,-8.59 -8.18,0 -16.04,3.13 -21.57,8.59 -5.81,5.74 -8.72,13.74 -8.72,23.99 0,7.54 0.6,19.95 1.8,37.25 l 6.42,88.75 z" />
        <circle
           id="circle2237"
           cy="122.21593"
           cx="-519.99854"
           r="30.747" />
      </g>
    </g>
  </g>
</svg>
