<?xml version="1.0" encoding="UTF-8" standalone="no"?>
<svg
   xmlns:dc="http://purl.org/dc/elements/1.1/"
   xmlns:cc="http://creativecommons.org/ns#"
   xmlns:rdf="http://www.w3.org/1999/02/22-rdf-syntax-ns#"
   xmlns:svg="http://www.w3.org/2000/svg"
   xmlns="http://www.w3.org/2000/svg"
   xmlns:sodipodi="http://sodipodi.sourceforge.net/DTD/sodipodi-0.dtd"
   xmlns:inkscape="http://www.inkscape.org/namespaces/inkscape"
   version="1.0"
   width="38.000000pt"
   height="38.000000pt"
   viewBox="0 0 172.000000 172.000000"
   preserveAspectRatio="xMidYMid meet"
   id="svg1841"
   sodipodi:docname="logo.190621.svg"
   inkscape:version="0.92.2 5c3e80d, 2017-08-06"
   inkscape:export-filename="/Users/ben/Development/Xamarin/Forms9Patch2/Forms9PatchSourceDemo/Forms9PatchDemo.Android/Resources/mipmap-hdpi/launcher_foreground.png"
   inkscape:export-xdpi="306.95001"
   inkscape:export-ydpi="306.95001">
  <defs
     id="defs1845" />
  <sodipodi:namedview
     pagecolor="#ffffff"
     bordercolor="#666666"
     borderopacity="1"
     objecttolerance="10"
     gridtolerance="10"
     guidetolerance="10"
     inkscape:pageopacity="0"
     inkscape:pageshadow="2"
     inkscape:window-width="1296"
     inkscape:window-height="850"
     id="namedview1843"
     showgrid="false"
     inkscape:zoom="4.6578947"
     inkscape:cx="-6.5480226"
     inkscape:cy="25.333333"
     inkscape:window-x="0"
     inkscape:window-y="0"
     inkscape:window-maximized="0"
     inkscape:current-layer="svg1841" />
  <metadata
     id="metadata1831">
Created by Docfx
<rdf:RDF>
  <cc:Work
     rdf:about="">
    <dc:format>image/svg+xml</dc:format>
    <dc:type
       rdf:resource="http://purl.org/dc/dcmitype/StillImage" />
    <dc:title></dc:title>
  </cc:Work>
</rdf:RDF>
</metadata>
  <g
     id="g851"
     transform="matrix(1.2069717,0,0,1.2069717,-17.799568,-17.799614)"
     style="stroke-width:0.82851994">
    <path
       inkscape:export-ydpi="90.000023"
       inkscape:export-xdpi="90.000023"
       d="m 156.31517,86.000038 c 0,4.21891 -31.5039,58.785272 -35.15758,60.894722 -3.65369,2.10946 -66.661492,2.10946 -70.315175,0 C 47.188731,144.78531 15.68483,90.218948 15.68483,86.000038 c 0,-4.21891 31.503901,-58.785268 35.157585,-60.894724 3.653683,-2.109455 66.661485,-2.109455 70.315175,0 3.65368,2.109455 35.15758,56.675814 35.15758,60.894724 z"
       inkscape:randomized="0"
       inkscape:rounded="0.06"
       inkscape:flatsided="true"
       sodipodi:arg2="0.52359874"
       sodipodi:arg1="-5.4965052e-10"
       sodipodi:r2="23.257441"
       sodipodi:r1="70.31517"
       sodipodi:cy="86.000038"
       sodipodi:cx="86"
       sodipodi:sides="6"
       id="path4170"
       style="opacity:1;fill:#003b74;fill-opacity:1;stroke:none;stroke-width:3.0001142;stroke-miterlimit:4;stroke-dasharray:none;stroke-dashoffset:0;stroke-opacity:0.78431373"
       sodipodi:type="star" />
    <g
       transform="matrix(1.0986746,0,0,1.0986746,-151.64843,-470.53189)"
       inkscape:export-ydpi="90.000023"
       inkscape:export-xdpi="90.000023"
       id="g4335"
       style="stroke:none;stroke-width:2.73066664">
      <g
         id="g4213"
         transform="translate(-13.845879,3.8768995)"
         style="stroke:none;stroke-width:2.73066664">
        <g
           id="g4313"
           style="stroke:none;stroke-width:2.73066664">
          <g
             id="text4209"
             style="font-style:normal;font-variant:normal;font-weight:bold;font-stretch:normal;line-height:0%;font-family:Eurostile;-inkscape-font-specification:'Eurostile Bold';letter-spacing:0px;word-spacing:0px;fill:none;fill-opacity:0.20903955;stroke:none;stroke-width:2.73066664px;stroke-linecap:butt;stroke-linejoin:miter;stroke-opacity:0.25988704"
             transform="scale(0.95588742,1.0461483)"
             aria-label="9">
            <path
               id="path854"
               style="font-size:76.59278107px;line-height:1.25;stroke:none;stroke-width:2.73066664px"
               d="m 198.89537,490.32847 h 9.4245 q 0,4.86185 1.57075,5.98382 1.57075,1.08456 8.37734,1.08456 7.36757,0 8.93832,-1.53335 1.60815,-1.53335 1.60815,-8.67653 v -7.44236 h -0.187 q -2.43092,5.01144 -11.74323,5.01144 -10.47167,0 -14.06195,-2.91711 -3.55289,-2.9545 -3.55289,-11.55623 0,-10.06028 3.73988,-13.53837 3.77728,-3.47809 14.69774,-3.47809 14.17415,0 17.50264,4.03907 3.3659,4.03907 3.3659,21.16773 0,18.43762 -3.2163,22.58889 -3.1789,4.11387 -17.42785,4.11387 -10.99525,0 -15.03433,-2.76752 -4.00167,-2.76751 -4.00167,-10.32207 z m 19.18559,-29.28327 q -6.02121,0 -7.62935,1.42115 -1.60815,1.38376 -1.60815,6.6196 0,5.27323 1.60815,6.58219 1.64554,1.30896 8.19034,1.30896 6.91878,0 8.63912,-1.23416 1.72035,-1.27156 1.72035,-6.24561 0,-5.68462 -1.79514,-7.06837 -1.79515,-1.38376 -9.12532,-1.38376 z"
               inkscape:connector-curvature="0" />
          </g>
          <g
             id="text4181"
             style="font-style:normal;font-variant:normal;font-weight:bold;font-stretch:normal;line-height:0%;font-family:Eurostile;-inkscape-font-specification:'Eurostile Bold';letter-spacing:0px;word-spacing:0px;fill:#f56055;fill-opacity:1;stroke:none;stroke-width:2.73066664px;stroke-linecap:butt;stroke-linejoin:miter;stroke-opacity:1"
             transform="scale(0.95588742,1.0461483)"
             aria-label="9">
            <path
               id="path857"
               style="font-size:76.59278107px;line-height:1.25;stroke:none;stroke-width:2.73066664px"
               d="m 198.89537,490.32847 h 9.4245 q 0,4.86185 1.57075,5.98382 1.57075,1.08456 8.37734,1.08456 7.36757,0 8.93832,-1.53335 1.60815,-1.53335 1.60815,-8.67653 v -7.44236 h -0.187 q -2.43092,5.01144 -11.74323,5.01144 -10.47167,0 -14.06195,-2.91711 -3.55289,-2.9545 -3.55289,-11.55623 0,-10.06028 3.73988,-13.53837 3.77728,-3.47809 14.69774,-3.47809 14.17415,0 17.50264,4.03907 3.3659,4.03907 3.3659,21.16773 0,18.43762 -3.2163,22.58889 -3.1789,4.11387 -17.42785,4.11387 -10.99525,0 -15.03433,-2.76752 -4.00167,-2.76751 -4.00167,-10.32207 z m 19.18559,-29.28327 q -6.02121,0 -7.62935,1.42115 -1.60815,1.38376 -1.60815,6.6196 0,5.27323 1.60815,6.58219 1.64554,1.30896 8.19034,1.30896 6.91878,0 8.63912,-1.23416 1.72035,-1.27156 1.72035,-6.24561 0,-5.68462 -1.79514,-7.06837 -1.79515,-1.38376 -9.12532,-1.38376 z"
               inkscape:connector-curvature="0" />
          </g>
        </g>
      </g>
      <g
         id="g4329"
         style="stroke:none;stroke-width:2.73066664">
        <g
           id="text4221"
           style="font-style:normal;font-variant:normal;font-weight:bold;font-stretch:normal;line-height:0%;font-family:Eurostile;-inkscape-font-specification:'Eurostile Bold';letter-spacing:0px;word-spacing:0px;fill:none;fill-opacity:0.20903955;stroke:none;stroke-width:2.73066664px;stroke-linecap:butt;stroke-linejoin:miter;stroke-opacity:0.25988704"
           transform="scale(0.95588742,1.0461483)"
           aria-label="P">
          <path
             id="path860"
             style="font-size:76.59278107px;line-height:1.25;stroke:none;stroke-width:2.73066664px"
             d="m 231.44111,508.4516 v -51.04939 h 20.56935 2.54312 q 10.35947,0 13.94975,3.62769 3.62769,3.59028 3.62769,13.91236 0,10.24727 -3.44069,13.61317 -3.44069,3.36589 -13.91236,3.36589 l -2.24393,0.0374 H 241.1274 v 16.49288 z m 9.68629,-24.64582 h 11.03265 q 6.58219,0 8.33994,-1.49596 1.79514,-1.53335 1.79514,-7.18057 0,-6.46999 -1.49595,-8.00335 -1.45856,-1.57075 -7.66676,-1.57075 H 241.1274 Z"
             inkscape:connector-curvature="0" />
        </g>
        <g
           id="text4225"
           style="font-style:normal;font-variant:normal;font-weight:bold;font-stretch:normal;line-height:0%;font-family:Eurostile;-inkscape-font-specification:'Eurostile Bold';letter-spacing:0px;word-spacing:0px;fill:#f56055;fill-opacity:1;stroke:none;stroke-width:2.73066664px;stroke-linecap:butt;stroke-linejoin:miter;stroke-opacity:1"
           transform="scale(0.95588742,1.0461483)"
           aria-label="P">
          <path
             id="path863"
             style="font-size:76.59278107px;line-height:1.25;stroke:none;stroke-width:2.73066664px"
             d="m 231.44111,508.35641 v -51.04938 h 20.56935 2.54312 q 10.35947,0 13.94975,3.62768 3.62769,3.59029 3.62769,13.91236 0,10.24728 -3.44069,13.61317 -3.44069,3.3659 -13.91236,3.3659 l -2.24393,0.0374 H 241.1274 v 16.49287 z m 9.68629,-24.64582 h 11.03265 q 6.58219,0 8.33994,-1.49595 1.79514,-1.53335 1.79514,-7.18057 0,-6.47 -1.49595,-8.00335 -1.45856,-1.57075 -7.66676,-1.57075 H 241.1274 Z"
             inkscape:connector-curvature="0" />
        </g>
      </g>
    </g>
  </g>
</svg>
