<?xml version="1.0" encoding="UTF-8" standalone="no"?>
<svg
   xmlns:dc="http://purl.org/dc/elements/1.1/"
   xmlns:cc="http://creativecommons.org/ns#"
   xmlns:rdf="http://www.w3.org/1999/02/22-rdf-syntax-ns#"
   xmlns:svg="http://www.w3.org/2000/svg"
   xmlns="http://www.w3.org/2000/svg"
   xmlns:xlink="http://www.w3.org/1999/xlink"
   xmlns:sodipodi="http://sodipodi.sourceforge.net/DTD/sodipodi-0.dtd"
   xmlns:inkscape="http://www.inkscape.org/namespaces/inkscape"
   version="1.0"
   width="38.000000pt"
   height="38.000000pt"
   viewBox="0 0 172.000000 172.000000"
   preserveAspectRatio="xMidYMid meet"
   id="svg1841"
   sodipodi:docname="logo.svg"
   inkscape:version="0.92.2 5c3e80d, 2017-08-06">
  <defs
     id="defs1845">
    <radialGradient
       inkscape:collect="always"
       xlink:href="#linearGradient4711"
       id="radialGradient4717"
       cx="190.88795"
       cy="572.81879"
       fx="190.88795"
       fy="572.81879"
       r="40.239586"
       gradientTransform="matrix(5.1820347,0,0,0.58404075,-235.63128,1729.16)"
       gradientUnits="userSpaceOnUse" />
    <linearGradient
       inkscape:collect="always"
       id="linearGradient4711">
      <stop
         style="stop-color:#808080;stop-opacity:1;"
         offset="0"
         id="stop4713" />
      <stop
         id="stop4719"
         offset="0.47364825"
         style="stop-color:#808080;stop-opacity:0.66545455" />
      <stop
         style="stop-color:#808080;stop-opacity:0;"
         offset="1"
         id="stop4715" />
    </linearGradient>
    <linearGradient
       inkscape:collect="always"
       xlink:href="#Modified"
       id="linearGradient4197"
       x1="218.06334"
       y1="563.30469"
       x2="218.50528"
       y2="450.06647"
       gradientUnits="userSpaceOnUse"
       gradientTransform="matrix(3.6210526,0,0,3.6210526,-28.127116,22.860018)" />
    <linearGradient
       inkscape:collect="always"
       id="Modified">
      <stop
         style="stop-color:#003b74;stop-opacity:1"
         offset="0"
         id="stop4193" />
      <stop
         id="stop4203"
         offset="0.02159258"
         style="stop-color:#005db4;stop-opacity:1" />
      <stop
         id="stop4199"
         offset="0.16772932"
         style="stop-color:#005cb4;stop-opacity:1" />
      <stop
         style="stop-color:#00498c;stop-opacity:1"
         offset="0.31295282"
         id="stop4201" />
      <stop
         style="stop-color:#00498c;stop-opacity:1"
         offset="1"
         id="stop4195" />
    </linearGradient>
  </defs>
  <sodipodi:namedview
     pagecolor="#ffffff"
     bordercolor="#666666"
     borderopacity="1"
     objecttolerance="10"
     gridtolerance="10"
     guidetolerance="10"
     inkscape:pageopacity="0"
     inkscape:pageshadow="2"
     inkscape:window-width="1296"
     inkscape:window-height="850"
     id="namedview1843"
     showgrid="false"
     inkscape:zoom="4.6578947"
     inkscape:cx="-4.0790961"
     inkscape:cy="25.333333"
     inkscape:window-x="0"
     inkscape:window-y="0"
     inkscape:window-maximized="0"
     inkscape:current-layer="svg1841" />
  <metadata
     id="metadata1831">
Created by Docfx
<rdf:RDF>
  <cc:Work
     rdf:about="">
    <dc:format>image/svg+xml</dc:format>
    <dc:type
       rdf:resource="http://purl.org/dc/dcmitype/StillImage" />
  </cc:Work>
</rdf:RDF>
</metadata>
  <ellipse
     style="opacity:0.66500005;fill:url(#radialGradient4717);fill-opacity:1;stroke:none;stroke-width:3.6210525;stroke-miterlimit:4;stroke-dasharray:none;stroke-dashoffset:0;stroke-opacity:0.25988704"
     id="path3909"
     cx="86"
     cy="148.21323"
     rx="63.26857"
     ry="7.1306787" />
  <path
     sodipodi:type="star"
     style="opacity:1;fill:url(#linearGradient4197);fill-opacity:1;stroke:none;stroke-width:3.6210525;stroke-miterlimit:4;stroke-dasharray:none;stroke-dashoffset:0;stroke-opacity:0.78431373"
     id="path4170"
     sodipodi:sides="6"
     sodipodi:cx="86"
     sodipodi:cy="86.000038"
     sodipodi:r1="70.31517"
     sodipodi:r2="23.257441"
     sodipodi:arg1="-5.4965052e-10"
     sodipodi:arg2="0.52359874"
     inkscape:flatsided="true"
     inkscape:rounded="0.06"
     inkscape:randomized="0"
     d="m 156.31517,86.000038 c 0,4.21891 -31.5039,58.785272 -35.15758,60.894722 -3.65369,2.10946 -66.661492,2.10946 -70.315175,0 C 47.188731,144.78531 15.68483,90.218948 15.68483,86.000038 c 0,-4.21891 31.503901,-58.785268 35.157585,-60.894724 3.653683,-2.109455 66.661485,-2.109455 70.315175,0 3.65368,2.109455 35.15758,56.675814 35.15758,60.894724 z"
     inkscape:export-xdpi="90.000023"
     inkscape:export-ydpi="90.000023" />
  <g
     style="stroke-width:3.29583716"
     id="g4335"
     inkscape:export-xdpi="90.000023"
     inkscape:export-ydpi="90.000023"
     transform="matrix(1.0986746,0,0,1.0986746,-151.64843,-470.53189)">
    <g
       style="stroke-width:3.29583716"
       transform="translate(-13.845879,3.8768995)"
       id="g4213">
      <g
         style="stroke-width:3.29583716"
         id="g4313">
        <g
           aria-label="9"
           transform="scale(0.95588742,1.0461483)"
           style="font-style:normal;font-variant:normal;font-weight:bold;font-stretch:normal;line-height:0%;font-family:Eurostile;-inkscape-font-specification:'Eurostile Bold';letter-spacing:0px;word-spacing:0px;fill:none;fill-opacity:0.20903955;stroke:#000000;stroke-width:3.29583716px;stroke-linecap:butt;stroke-linejoin:miter;stroke-opacity:0.25988704"
           id="text4209">
          <path
             d="m 198.89537,490.32847 h 9.4245 q 0,4.86185 1.57075,5.98382 1.57075,1.08456 8.37734,1.08456 7.36757,0 8.93832,-1.53335 1.60815,-1.53335 1.60815,-8.67653 v -7.44236 h -0.187 q -2.43092,5.01144 -11.74323,5.01144 -10.47167,0 -14.06195,-2.91711 -3.55289,-2.9545 -3.55289,-11.55623 0,-10.06028 3.73988,-13.53837 3.77728,-3.47809 14.69774,-3.47809 14.17415,0 17.50264,4.03907 3.3659,4.03907 3.3659,21.16773 0,18.43762 -3.2163,22.58889 -3.1789,4.11387 -17.42785,4.11387 -10.99525,0 -15.03433,-2.76752 -4.00167,-2.76751 -4.00167,-10.32207 z m 19.18559,-29.28327 q -6.02121,0 -7.62935,1.42115 -1.60815,1.38376 -1.60815,6.6196 0,5.27323 1.60815,6.58219 1.64554,1.30896 8.19034,1.30896 6.91878,0 8.63912,-1.23416 1.72035,-1.27156 1.72035,-6.24561 0,-5.68462 -1.79514,-7.06837 -1.79515,-1.38376 -9.12532,-1.38376 z"
             style="font-size:76.59278107px;line-height:1.25;stroke-width:3.29583716px"
             id="path854" />
        </g>
        <g
           aria-label="9"
           transform="scale(0.95588742,1.0461483)"
           style="font-style:normal;font-variant:normal;font-weight:bold;font-stretch:normal;line-height:0%;font-family:Eurostile;-inkscape-font-specification:'Eurostile Bold';letter-spacing:0px;word-spacing:0px;fill:#f56055;fill-opacity:1;stroke:none;stroke-width:3.29583716px;stroke-linecap:butt;stroke-linejoin:miter;stroke-opacity:1"
           id="text4181">
          <path
             d="m 198.89537,490.32847 h 9.4245 q 0,4.86185 1.57075,5.98382 1.57075,1.08456 8.37734,1.08456 7.36757,0 8.93832,-1.53335 1.60815,-1.53335 1.60815,-8.67653 v -7.44236 h -0.187 q -2.43092,5.01144 -11.74323,5.01144 -10.47167,0 -14.06195,-2.91711 -3.55289,-2.9545 -3.55289,-11.55623 0,-10.06028 3.73988,-13.53837 3.77728,-3.47809 14.69774,-3.47809 14.17415,0 17.50264,4.03907 3.3659,4.03907 3.3659,21.16773 0,18.43762 -3.2163,22.58889 -3.1789,4.11387 -17.42785,4.11387 -10.99525,0 -15.03433,-2.76752 -4.00167,-2.76751 -4.00167,-10.32207 z m 19.18559,-29.28327 q -6.02121,0 -7.62935,1.42115 -1.60815,1.38376 -1.60815,6.6196 0,5.27323 1.60815,6.58219 1.64554,1.30896 8.19034,1.30896 6.91878,0 8.63912,-1.23416 1.72035,-1.27156 1.72035,-6.24561 0,-5.68462 -1.79514,-7.06837 -1.79515,-1.38376 -9.12532,-1.38376 z"
             style="font-size:76.59278107px;line-height:1.25;stroke-width:3.29583716px"
             id="path857" />
        </g>
      </g>
    </g>
    <g
       style="stroke-width:3.29583716"
       id="g4329">
      <g
         aria-label="P"
         transform="scale(0.95588742,1.0461483)"
         style="font-style:normal;font-variant:normal;font-weight:bold;font-stretch:normal;line-height:0%;font-family:Eurostile;-inkscape-font-specification:'Eurostile Bold';letter-spacing:0px;word-spacing:0px;fill:none;fill-opacity:0.20903955;stroke:#000000;stroke-width:3.29583716px;stroke-linecap:butt;stroke-linejoin:miter;stroke-opacity:0.25988704"
         id="text4221">
        <path
           d="m 231.44111,508.4516 v -51.04939 h 20.56935 2.54312 q 10.35947,0 13.94975,3.62769 3.62769,3.59028 3.62769,13.91236 0,10.24727 -3.44069,13.61317 -3.44069,3.36589 -13.91236,3.36589 l -2.24393,0.0374 H 241.1274 v 16.49288 z m 9.68629,-24.64582 h 11.03265 q 6.58219,0 8.33994,-1.49596 1.79514,-1.53335 1.79514,-7.18057 0,-6.46999 -1.49595,-8.00335 -1.45856,-1.57075 -7.66676,-1.57075 H 241.1274 Z"
           style="font-size:76.59278107px;line-height:1.25;stroke-width:3.29583716px"
           id="path860" />
      </g>
      <g
         aria-label="P"
         transform="scale(0.95588742,1.0461483)"
         style="font-style:normal;font-variant:normal;font-weight:bold;font-stretch:normal;line-height:0%;font-family:Eurostile;-inkscape-font-specification:'Eurostile Bold';letter-spacing:0px;word-spacing:0px;fill:#f56055;fill-opacity:1;stroke:none;stroke-width:3.29583716px;stroke-linecap:butt;stroke-linejoin:miter;stroke-opacity:1"
         id="text4225">
        <path
           d="m 231.44111,508.35641 v -51.04938 h 20.56935 2.54312 q 10.35947,0 13.94975,3.62768 3.62769,3.59029 3.62769,13.91236 0,10.24728 -3.44069,13.61317 -3.44069,3.3659 -13.91236,3.3659 l -2.24393,0.0374 H 241.1274 v 16.49287 z m 9.68629,-24.64582 h 11.03265 q 6.58219,0 8.33994,-1.49595 1.79514,-1.53335 1.79514,-7.18057 0,-6.47 -1.49595,-8.00335 -1.45856,-1.57075 -7.66676,-1.57075 H 241.1274 Z"
           style="font-size:76.59278107px;line-height:1.25;stroke-width:3.29583716px"
           id="path863" />
      </g>
    </g>
  </g>
  <rect
     style="opacity:1;fill:none;fill-opacity:1;stroke:none;stroke-width:9.75263691;stroke-miterlimit:4;stroke-dasharray:none;stroke-dashoffset:0;stroke-opacity:0.25988704"
     id="rect3875"
     width="140.63036"
     height="140.63036"
     x="15.684827"
     y="15.684828"
     rx="0"
     ry="0" />
</svg>
